<mxfile host="app.diagrams.net" modified="2022-09-27T09:16:25.105Z" agent="5.0 (Windows NT 10.0; Win64; x64) AppleWebKit/537.36 (KHTML, like Gecko) Chrome/105.0.0.0 Safari/537.36" etag="S1k2aB_O2uQ3zslt1lFd" version="20.3.6" type="github" pages="5">
  <diagram id="jccyiHgNSNQttszmfxlZ" name="Page-2">
    <mxGraphModel dx="3470" dy="835" grid="1" gridSize="10" guides="1" tooltips="1" connect="1" arrows="1" fold="1" page="1" pageScale="1" pageWidth="1920" pageHeight="1200" math="0" shadow="0">
      <root>
        <mxCell id="0" />
        <mxCell id="1" parent="0" />
        <mxCell id="bHQWfMzYvvroib5OxHJU-2" value="" style="endArrow=none;dashed=1;html=1;rounded=0;fontSize=14;fontFamily=Times New Roman;" parent="1" edge="1">
          <mxGeometry width="50" height="50" relative="1" as="geometry">
            <mxPoint x="240" y="1040" as="sourcePoint" />
            <mxPoint x="240" y="320" as="targetPoint" />
          </mxGeometry>
        </mxCell>
        <mxCell id="bHQWfMzYvvroib5OxHJU-122" style="edgeStyle=orthogonalEdgeStyle;shape=connector;rounded=0;orthogonalLoop=1;jettySize=auto;html=1;exitX=1.05;exitY=0.74;exitDx=0;exitDy=0;entryX=0;entryY=0.75;entryDx=0;entryDy=0;labelBackgroundColor=default;fontFamily=Times New Roman;fontSize=8;fontColor=default;endArrow=classic;endSize=4;strokeColor=default;strokeWidth=3;exitPerimeter=0;" parent="1" source="bHQWfMzYvvroib5OxHJU-1" target="bHQWfMzYvvroib5OxHJU-6" edge="1">
          <mxGeometry relative="1" as="geometry">
            <Array as="points">
              <mxPoint x="260" y="812" />
              <mxPoint x="260" y="810" />
              <mxPoint x="310" y="810" />
              <mxPoint x="310" y="538" />
            </Array>
          </mxGeometry>
        </mxCell>
        <mxCell id="bHQWfMzYvvroib5OxHJU-1" value="" style="rounded=1;whiteSpace=wrap;html=1;fillColor=#fff2cc;strokeColor=#d6b656;strokeWidth=3;fontSize=14;fontFamily=Times New Roman;" parent="1" vertex="1">
          <mxGeometry x="220" y="390" width="40" height="570" as="geometry" />
        </mxCell>
        <mxCell id="bHQWfMzYvvroib5OxHJU-3" value="" style="endArrow=none;dashed=1;html=1;rounded=0;fontSize=14;fontFamily=Times New Roman;" parent="1" edge="1">
          <mxGeometry width="50" height="50" relative="1" as="geometry">
            <mxPoint x="840" y="1050" as="sourcePoint" />
            <mxPoint x="840" y="330" as="targetPoint" />
          </mxGeometry>
        </mxCell>
        <mxCell id="bHQWfMzYvvroib5OxHJU-167" style="edgeStyle=orthogonalEdgeStyle;shape=connector;rounded=0;orthogonalLoop=1;jettySize=auto;html=1;exitX=0.999;exitY=0.769;exitDx=0;exitDy=0;labelBackgroundColor=default;fontFamily=Times New Roman;fontSize=8;fontColor=default;endArrow=classic;endSize=1;strokeColor=default;strokeWidth=3;exitPerimeter=0;" parent="1" source="bHQWfMzYvvroib5OxHJU-4" edge="1">
          <mxGeometry relative="1" as="geometry">
            <mxPoint x="990" y="810" as="targetPoint" />
            <Array as="points">
              <mxPoint x="860" y="840" />
              <mxPoint x="910" y="840" />
              <mxPoint x="910" y="810" />
            </Array>
          </mxGeometry>
        </mxCell>
        <mxCell id="bHQWfMzYvvroib5OxHJU-4" value="" style="rounded=1;whiteSpace=wrap;html=1;fillColor=#fff2cc;strokeColor=#d6b656;strokeWidth=3;fontSize=14;fontFamily=Times New Roman;" parent="1" vertex="1">
          <mxGeometry x="820" y="400" width="40" height="570" as="geometry" />
        </mxCell>
        <mxCell id="bHQWfMzYvvroib5OxHJU-5" value="RegFile" style="rounded=1;whiteSpace=wrap;html=1;strokeWidth=3;fillColor=#A9C4EB;fontSize=14;fontFamily=Times New Roman;" parent="1" vertex="1">
          <mxGeometry x="480" y="680" width="160" height="200" as="geometry" />
        </mxCell>
        <mxCell id="bHQWfMzYvvroib5OxHJU-6" value="Decode" style="rounded=1;whiteSpace=wrap;html=1;strokeWidth=3;fillColor=#f8cecc;strokeColor=#b85450;fontSize=14;fontFamily=Times New Roman;" parent="1" vertex="1">
          <mxGeometry x="430" y="410" width="120" height="170" as="geometry" />
        </mxCell>
        <mxCell id="bHQWfMzYvvroib5OxHJU-7" value="" style="endArrow=none;dashed=1;html=1;rounded=0;fontSize=14;fontFamily=Times New Roman;" parent="1" edge="1">
          <mxGeometry width="50" height="50" relative="1" as="geometry">
            <mxPoint x="1440" y="1050" as="sourcePoint" />
            <mxPoint x="1440" y="330" as="targetPoint" />
          </mxGeometry>
        </mxCell>
        <mxCell id="bHQWfMzYvvroib5OxHJU-8" value="" style="rounded=1;whiteSpace=wrap;html=1;fillColor=#fff2cc;strokeColor=#d6b656;strokeWidth=3;fontSize=14;fontFamily=Times New Roman;" parent="1" vertex="1">
          <mxGeometry x="1420" y="400" width="40" height="570" as="geometry" />
        </mxCell>
        <mxCell id="bHQWfMzYvvroib5OxHJU-10" value="" style="endArrow=none;html=1;rounded=0;strokeWidth=3;fontSize=14;fontFamily=Times New Roman;" parent="1" edge="1">
          <mxGeometry width="50" height="50" relative="1" as="geometry">
            <mxPoint x="1140" y="690" as="sourcePoint" />
            <mxPoint x="1220" y="740" as="targetPoint" />
          </mxGeometry>
        </mxCell>
        <mxCell id="bHQWfMzYvvroib5OxHJU-11" value="" style="endArrow=none;html=1;rounded=0;strokeWidth=3;fontSize=14;fontFamily=Times New Roman;" parent="1" edge="1">
          <mxGeometry width="50" height="50" relative="1" as="geometry">
            <mxPoint x="1220" y="740" as="sourcePoint" />
            <mxPoint x="1220" y="800" as="targetPoint" />
          </mxGeometry>
        </mxCell>
        <mxCell id="bHQWfMzYvvroib5OxHJU-13" value="" style="endArrow=none;html=1;rounded=0;strokeWidth=3;fontSize=14;fontFamily=Times New Roman;" parent="1" edge="1">
          <mxGeometry width="50" height="50" relative="1" as="geometry">
            <mxPoint x="1220" y="800" as="sourcePoint" />
            <mxPoint x="1140" y="850" as="targetPoint" />
          </mxGeometry>
        </mxCell>
        <mxCell id="bHQWfMzYvvroib5OxHJU-14" value="" style="endArrow=none;html=1;rounded=0;strokeWidth=3;fontSize=14;fontFamily=Times New Roman;" parent="1" edge="1">
          <mxGeometry width="50" height="50" relative="1" as="geometry">
            <mxPoint x="1140" y="690" as="sourcePoint" />
            <mxPoint x="1140" y="850" as="targetPoint" />
            <Array as="points">
              <mxPoint x="1140" y="760" />
              <mxPoint x="1150" y="770" />
              <mxPoint x="1140" y="780" />
            </Array>
          </mxGeometry>
        </mxCell>
        <mxCell id="bHQWfMzYvvroib5OxHJU-22" value="" style="endArrow=none;html=1;rounded=0;strokeWidth=3;fontSize=14;fontFamily=Times New Roman;" parent="1" edge="1">
          <mxGeometry width="50" height="50" relative="1" as="geometry">
            <mxPoint x="-20" y="574.5" as="sourcePoint" />
            <mxPoint x="40" y="604.5" as="targetPoint" />
          </mxGeometry>
        </mxCell>
        <mxCell id="bHQWfMzYvvroib5OxHJU-23" value="" style="endArrow=none;html=1;rounded=0;strokeWidth=3;fontSize=14;fontFamily=Times New Roman;" parent="1" edge="1">
          <mxGeometry width="50" height="50" relative="1" as="geometry">
            <mxPoint x="40" y="604.5" as="sourcePoint" />
            <mxPoint x="40" y="644.5" as="targetPoint" />
          </mxGeometry>
        </mxCell>
        <mxCell id="bHQWfMzYvvroib5OxHJU-24" value="" style="endArrow=none;html=1;rounded=0;strokeWidth=3;fontSize=14;fontFamily=Times New Roman;" parent="1" edge="1">
          <mxGeometry width="50" height="50" relative="1" as="geometry">
            <mxPoint x="40" y="644.5" as="sourcePoint" />
            <mxPoint x="-20" y="674.5" as="targetPoint" />
          </mxGeometry>
        </mxCell>
        <mxCell id="bHQWfMzYvvroib5OxHJU-25" value="" style="endArrow=none;html=1;rounded=0;strokeWidth=3;fontSize=14;fontFamily=Times New Roman;" parent="1" edge="1">
          <mxGeometry width="50" height="50" relative="1" as="geometry">
            <mxPoint x="-20" y="574.5" as="sourcePoint" />
            <mxPoint x="-20" y="674.5" as="targetPoint" />
            <Array as="points">
              <mxPoint x="-20" y="614.5" />
              <mxPoint x="-10" y="624.5" />
              <mxPoint x="-20" y="634.5" />
            </Array>
          </mxGeometry>
        </mxCell>
        <mxCell id="bHQWfMzYvvroib5OxHJU-26" value="Data Memory" style="rounded=1;whiteSpace=wrap;html=1;strokeWidth=3;fillColor=#CCE5FF;fontSize=14;fontFamily=Times New Roman;" parent="1" vertex="1">
          <mxGeometry x="1680" y="660" width="160" height="200" as="geometry" />
        </mxCell>
        <mxCell id="bHQWfMzYvvroib5OxHJU-30" style="edgeStyle=orthogonalEdgeStyle;rounded=0;orthogonalLoop=1;jettySize=auto;html=1;exitX=1;exitY=0.75;exitDx=0;exitDy=0;strokeWidth=3;fontSize=14;fontFamily=Times New Roman;" parent="1" source="bHQWfMzYvvroib5OxHJU-27" edge="1">
          <mxGeometry relative="1" as="geometry">
            <mxPoint x="220" y="810" as="targetPoint" />
          </mxGeometry>
        </mxCell>
        <mxCell id="bHQWfMzYvvroib5OxHJU-32" value="inst_IF[31:0]" style="edgeLabel;html=1;align=center;verticalAlign=middle;resizable=0;points=[];fontSize=14;fontFamily=Times New Roman;" parent="bHQWfMzYvvroib5OxHJU-30" vertex="1" connectable="0">
          <mxGeometry x="-0.1719" y="1" relative="1" as="geometry">
            <mxPoint x="1" as="offset" />
          </mxGeometry>
        </mxCell>
        <mxCell id="bHQWfMzYvvroib5OxHJU-27" value="Inst&lt;br&gt;Memory" style="rounded=1;whiteSpace=wrap;html=1;strokeWidth=3;fillColor=#CCE5FF;fontSize=14;fontFamily=Times New Roman;" parent="1" vertex="1">
          <mxGeometry x="-260" y="660" width="160" height="200" as="geometry" />
        </mxCell>
        <mxCell id="bHQWfMzYvvroib5OxHJU-28" value="" style="endArrow=none;dashed=1;html=1;rounded=0;fontSize=14;fontFamily=Times New Roman;" parent="1" edge="1">
          <mxGeometry width="50" height="50" relative="1" as="geometry">
            <mxPoint x="1970" y="1045" as="sourcePoint" />
            <mxPoint x="1970" y="325" as="targetPoint" />
          </mxGeometry>
        </mxCell>
        <mxCell id="bHQWfMzYvvroib5OxHJU-29" value="" style="rounded=1;whiteSpace=wrap;html=1;fillColor=#fff2cc;strokeColor=#d6b656;strokeWidth=3;fontSize=14;fontFamily=Times New Roman;" parent="1" vertex="1">
          <mxGeometry x="1950" y="395" width="40" height="570" as="geometry" />
        </mxCell>
        <mxCell id="bHQWfMzYvvroib5OxHJU-34" style="edgeStyle=orthogonalEdgeStyle;rounded=0;orthogonalLoop=1;jettySize=auto;html=1;exitX=1;exitY=0.5;exitDx=0;exitDy=0;entryX=0.021;entryY=0.15;entryDx=0;entryDy=0;entryPerimeter=0;fontFamily=Times New Roman;fontSize=14;fontColor=default;strokeWidth=3;" parent="1" source="bHQWfMzYvvroib5OxHJU-33" target="bHQWfMzYvvroib5OxHJU-1" edge="1">
          <mxGeometry relative="1" as="geometry" />
        </mxCell>
        <mxCell id="bHQWfMzYvvroib5OxHJU-35" value="PC_IF[31:0]" style="edgeLabel;html=1;align=center;verticalAlign=middle;resizable=0;points=[];fontSize=14;fontFamily=Times New Roman;fontColor=default;" parent="bHQWfMzYvvroib5OxHJU-34" vertex="1" connectable="0">
          <mxGeometry x="-0.2445" relative="1" as="geometry">
            <mxPoint x="-1" as="offset" />
          </mxGeometry>
        </mxCell>
        <mxCell id="bHQWfMzYvvroib5OxHJU-33" value="&lt;font style=&quot;font-size: 14px;&quot;&gt;PC&lt;/font&gt;" style="rounded=1;whiteSpace=wrap;html=1;strokeWidth=3;fillColor=#e1d5e7;strokeColor=#9673a6;fontSize=14;fontFamily=Times New Roman;" parent="1" vertex="1">
          <mxGeometry x="40" y="430" width="40" height="90" as="geometry" />
        </mxCell>
        <mxCell id="bHQWfMzYvvroib5OxHJU-36" style="edgeStyle=orthogonalEdgeStyle;rounded=0;orthogonalLoop=1;jettySize=auto;html=1;entryX=0;entryY=0.25;entryDx=0;entryDy=0;fontFamily=Times New Roman;fontSize=14;fontColor=default;strokeWidth=3;" parent="1" target="bHQWfMzYvvroib5OxHJU-27" edge="1">
          <mxGeometry relative="1" as="geometry">
            <mxPoint x="190" y="476" as="sourcePoint" />
            <mxPoint x="-260" y="717" as="targetPoint" />
            <Array as="points">
              <mxPoint x="190" y="400" />
              <mxPoint x="-290" y="400" />
              <mxPoint x="-290" y="710" />
            </Array>
          </mxGeometry>
        </mxCell>
        <mxCell id="bHQWfMzYvvroib5OxHJU-38" style="edgeStyle=orthogonalEdgeStyle;rounded=0;orthogonalLoop=1;jettySize=auto;html=1;fontFamily=Times New Roman;fontSize=14;fontColor=default;strokeWidth=3;startArrow=none;" parent="1" source="bHQWfMzYvvroib5OxHJU-71" edge="1">
          <mxGeometry relative="1" as="geometry">
            <mxPoint x="190" y="470" as="sourcePoint" />
            <mxPoint x="-20" y="594.5" as="targetPoint" />
            <Array as="points">
              <mxPoint x="190" y="540" />
              <mxPoint x="-60" y="540" />
              <mxPoint x="-60" y="595" />
            </Array>
          </mxGeometry>
        </mxCell>
        <mxCell id="bHQWfMzYvvroib5OxHJU-41" value="" style="endArrow=classic;html=1;rounded=0;labelBackgroundColor=default;fontFamily=Times New Roman;fontSize=14;fontColor=default;strokeColor=default;strokeWidth=3;shape=connector;" parent="1" edge="1">
          <mxGeometry width="50" height="50" relative="1" as="geometry">
            <mxPoint x="-60" y="654.5" as="sourcePoint" />
            <mxPoint x="-20" y="654.5" as="targetPoint" />
          </mxGeometry>
        </mxCell>
        <mxCell id="bHQWfMzYvvroib5OxHJU-42" value="4" style="text;html=1;align=center;verticalAlign=middle;resizable=0;points=[];autosize=1;strokeColor=none;fillColor=none;fontSize=14;fontFamily=Times New Roman;fontColor=default;" parent="1" vertex="1">
          <mxGeometry x="-80" y="644.5" width="20" height="20" as="geometry" />
        </mxCell>
        <mxCell id="bHQWfMzYvvroib5OxHJU-43" value="Add" style="text;html=1;align=center;verticalAlign=middle;resizable=0;points=[];autosize=1;strokeColor=none;fillColor=none;fontSize=14;fontFamily=Times New Roman;fontColor=default;" parent="1" vertex="1">
          <mxGeometry x="-10" y="614.5" width="40" height="20" as="geometry" />
        </mxCell>
        <mxCell id="bHQWfMzYvvroib5OxHJU-53" value="" style="endArrow=none;html=1;rounded=0;labelBackgroundColor=default;fontFamily=Times New Roman;fontSize=14;fontColor=default;strokeColor=default;strokeWidth=3;shape=connector;" parent="1" edge="1">
          <mxGeometry width="50" height="50" relative="1" as="geometry">
            <mxPoint x="-160" y="505.5" as="sourcePoint" />
            <mxPoint x="-160" y="444.5" as="targetPoint" />
          </mxGeometry>
        </mxCell>
        <mxCell id="bHQWfMzYvvroib5OxHJU-54" value="" style="endArrow=none;html=1;rounded=0;labelBackgroundColor=default;fontFamily=Times New Roman;fontSize=14;fontColor=default;strokeColor=default;strokeWidth=3;shape=connector;" parent="1" edge="1">
          <mxGeometry width="50" height="50" relative="1" as="geometry">
            <mxPoint x="-120" y="505.5" as="sourcePoint" />
            <mxPoint x="-120" y="444.5" as="targetPoint" />
          </mxGeometry>
        </mxCell>
        <mxCell id="bHQWfMzYvvroib5OxHJU-55" value="" style="endArrow=none;html=1;labelBackgroundColor=default;fontFamily=Times New Roman;fontSize=14;fontColor=default;strokeColor=default;strokeWidth=3;shape=connector;curved=1;" parent="1" edge="1">
          <mxGeometry width="50" height="50" relative="1" as="geometry">
            <mxPoint x="-160" y="444.5" as="sourcePoint" />
            <mxPoint x="-120" y="444.5" as="targetPoint" />
            <Array as="points">
              <mxPoint x="-160" y="424.5" />
              <mxPoint x="-120" y="424.5" />
            </Array>
          </mxGeometry>
        </mxCell>
        <mxCell id="bHQWfMzYvvroib5OxHJU-56" value="" style="endArrow=none;html=1;labelBackgroundColor=default;fontFamily=Times New Roman;fontSize=14;fontColor=default;strokeColor=default;strokeWidth=3;shape=connector;curved=1;" parent="1" edge="1">
          <mxGeometry width="50" height="50" relative="1" as="geometry">
            <mxPoint x="-120" y="505.5" as="sourcePoint" />
            <mxPoint x="-160" y="505.5" as="targetPoint" />
            <Array as="points">
              <mxPoint x="-120" y="525.5" />
              <mxPoint x="-160" y="525.5" />
            </Array>
          </mxGeometry>
        </mxCell>
        <mxCell id="bHQWfMzYvvroib5OxHJU-57" value="" style="endArrow=classic;html=1;labelBackgroundColor=default;fontFamily=Times New Roman;fontSize=14;fontColor=default;strokeColor=default;strokeWidth=3;shape=connector;rounded=0;" parent="1" edge="1">
          <mxGeometry width="50" height="50" relative="1" as="geometry">
            <mxPoint x="40" y="634.5" as="sourcePoint" />
            <mxPoint x="-160" y="450" as="targetPoint" />
            <Array as="points">
              <mxPoint x="80" y="634.5" />
              <mxPoint x="80" y="560" />
              <mxPoint x="-250" y="560" />
              <mxPoint x="-250" y="470.5" />
              <mxPoint x="-250" y="450" />
            </Array>
          </mxGeometry>
        </mxCell>
        <mxCell id="bHQWfMzYvvroib5OxHJU-226" value="PC_P4" style="edgeLabel;html=1;align=center;verticalAlign=middle;resizable=0;points=[];fontSize=8;fontFamily=Times New Roman;fontColor=default;" parent="bHQWfMzYvvroib5OxHJU-57" vertex="1" connectable="0">
          <mxGeometry x="0.1911" y="9" relative="1" as="geometry">
            <mxPoint x="20" y="-9" as="offset" />
          </mxGeometry>
        </mxCell>
        <mxCell id="bHQWfMzYvvroib5OxHJU-61" value="" style="endArrow=classic;html=1;labelBackgroundColor=default;fontFamily=Times New Roman;fontSize=14;fontColor=default;strokeColor=default;strokeWidth=3;shape=connector;rounded=0;" parent="1" target="bHQWfMzYvvroib5OxHJU-33" edge="1">
          <mxGeometry width="50" height="50" relative="1" as="geometry">
            <mxPoint x="-120" y="475" as="sourcePoint" />
            <mxPoint x="-150" y="510" as="targetPoint" />
          </mxGeometry>
        </mxCell>
        <mxCell id="bHQWfMzYvvroib5OxHJU-71" value="" style="shape=image;html=1;verticalAlign=top;verticalLabelPosition=bottom;labelBackgroundColor=#ffffff;imageAspect=0;aspect=fixed;image=https://cdn4.iconfinder.com/data/icons/essential-app-2/16/record-round-circle-dot-128.png;fontFamily=Times New Roman;fontSize=14;fontColor=default;" parent="1" vertex="1">
          <mxGeometry x="186" y="471.5" width="9" height="9" as="geometry" />
        </mxCell>
        <mxCell id="bHQWfMzYvvroib5OxHJU-77" style="edgeStyle=orthogonalEdgeStyle;rounded=0;orthogonalLoop=1;jettySize=auto;html=1;strokeWidth=3;fontSize=14;fontFamily=Times New Roman;" parent="1" edge="1">
          <mxGeometry relative="1" as="geometry">
            <mxPoint x="310" y="720" as="sourcePoint" />
            <mxPoint x="480" y="720" as="targetPoint" />
            <Array as="points">
              <mxPoint x="340" y="720" />
            </Array>
          </mxGeometry>
        </mxCell>
        <mxCell id="bHQWfMzYvvroib5OxHJU-78" value="raddr1_ID" style="edgeLabel;html=1;align=center;verticalAlign=middle;resizable=0;points=[];fontSize=14;fontFamily=Times New Roman;" parent="bHQWfMzYvvroib5OxHJU-77" vertex="1" connectable="0">
          <mxGeometry x="-0.1719" y="1" relative="1" as="geometry">
            <mxPoint x="39" as="offset" />
          </mxGeometry>
        </mxCell>
        <mxCell id="bHQWfMzYvvroib5OxHJU-83" style="edgeStyle=orthogonalEdgeStyle;rounded=0;orthogonalLoop=1;jettySize=auto;html=1;strokeWidth=3;fontSize=14;fontFamily=Times New Roman;" parent="1" edge="1">
          <mxGeometry relative="1" as="geometry">
            <mxPoint x="2140" y="740" as="sourcePoint" />
            <mxPoint x="480" y="840" as="targetPoint" />
            <Array as="points">
              <mxPoint x="2170" y="740" />
              <mxPoint x="2170" y="1040" />
              <mxPoint x="390" y="1040" />
              <mxPoint x="390" y="840" />
            </Array>
          </mxGeometry>
        </mxCell>
        <mxCell id="bHQWfMzYvvroib5OxHJU-84" value="wdata_WB" style="edgeLabel;html=1;align=center;verticalAlign=middle;resizable=0;points=[];fontSize=14;fontFamily=Times New Roman;" parent="bHQWfMzYvvroib5OxHJU-83" vertex="1" connectable="0">
          <mxGeometry x="-0.1719" y="1" relative="1" as="geometry">
            <mxPoint x="41" y="-15" as="offset" />
          </mxGeometry>
        </mxCell>
        <mxCell id="bHQWfMzYvvroib5OxHJU-87" style="edgeStyle=orthogonalEdgeStyle;rounded=0;orthogonalLoop=1;jettySize=auto;html=1;strokeWidth=3;fontSize=14;fontFamily=Times New Roman;" parent="1" edge="1">
          <mxGeometry relative="1" as="geometry">
            <mxPoint x="640" y="841" as="sourcePoint" />
            <mxPoint x="821" y="841" as="targetPoint" />
            <Array as="points">
              <mxPoint x="821" y="841" />
            </Array>
          </mxGeometry>
        </mxCell>
        <mxCell id="bHQWfMzYvvroib5OxHJU-88" value="rdata2" style="edgeLabel;html=1;align=center;verticalAlign=middle;resizable=0;points=[];fontSize=14;fontFamily=Times New Roman;" parent="bHQWfMzYvvroib5OxHJU-87" vertex="1" connectable="0">
          <mxGeometry x="-0.1719" y="1" relative="1" as="geometry">
            <mxPoint x="45" y="-4" as="offset" />
          </mxGeometry>
        </mxCell>
        <mxCell id="bHQWfMzYvvroib5OxHJU-89" value="Branch" style="rounded=1;whiteSpace=wrap;html=1;strokeWidth=3;fillColor=#f8cecc;strokeColor=#b85450;fontSize=14;fontFamily=Times New Roman;" parent="1" vertex="1">
          <mxGeometry x="610" y="584.5" width="120" height="50" as="geometry" />
        </mxCell>
        <mxCell id="bHQWfMzYvvroib5OxHJU-92" value="" style="endArrow=classic;html=1;rounded=0;labelBackgroundColor=default;fontFamily=Times New Roman;fontSize=14;fontColor=default;strokeColor=default;strokeWidth=2;shape=connector;exitX=1.007;exitY=0.098;exitDx=0;exitDy=0;exitPerimeter=0;entryX=-0.071;entryY=0.048;entryDx=0;entryDy=0;entryPerimeter=0;endSize=4;" parent="1" source="bHQWfMzYvvroib5OxHJU-6" target="bHQWfMzYvvroib5OxHJU-4" edge="1">
          <mxGeometry width="50" height="50" relative="1" as="geometry">
            <mxPoint x="510" y="430" as="sourcePoint" />
            <mxPoint x="560" y="380" as="targetPoint" />
          </mxGeometry>
        </mxCell>
        <mxCell id="bHQWfMzYvvroib5OxHJU-98" value="&lt;font style=&quot;font-size: 8px;&quot;&gt;RegWrite_ID&lt;/font&gt;" style="edgeLabel;html=1;align=center;verticalAlign=middle;resizable=0;points=[];fontSize=14;fontFamily=Times New Roman;fontColor=default;endArrow=classic;rounded=0;strokeColor=default;strokeWidth=2;endSize=4;" parent="bHQWfMzYvvroib5OxHJU-92" vertex="1" connectable="0">
          <mxGeometry x="-0.5229" y="1" relative="1" as="geometry">
            <mxPoint x="-21" as="offset" />
          </mxGeometry>
        </mxCell>
        <mxCell id="bHQWfMzYvvroib5OxHJU-93" value="" style="endArrow=classic;html=1;rounded=0;labelBackgroundColor=default;fontFamily=Times New Roman;fontSize=14;fontColor=default;strokeColor=default;strokeWidth=2;shape=connector;exitX=1.007;exitY=0.098;exitDx=0;exitDy=0;exitPerimeter=0;entryX=-0.071;entryY=0.048;entryDx=0;entryDy=0;entryPerimeter=0;endSize=4;" parent="1" edge="1">
          <mxGeometry width="50" height="50" relative="1" as="geometry">
            <mxPoint x="550" y="450.00000000000006" as="sourcePoint" />
            <mxPoint x="816.3199999999998" y="450.6999999999999" as="targetPoint" />
          </mxGeometry>
        </mxCell>
        <mxCell id="bHQWfMzYvvroib5OxHJU-99" value="MemRW_ID" style="edgeLabel;html=1;align=center;verticalAlign=middle;resizable=0;points=[];fontSize=8;fontFamily=Times New Roman;fontColor=default;endArrow=classic;rounded=0;strokeColor=default;strokeWidth=2;endSize=4;" parent="bHQWfMzYvvroib5OxHJU-93" vertex="1" connectable="0">
          <mxGeometry x="-0.5025" relative="1" as="geometry">
            <mxPoint x="-24" as="offset" />
          </mxGeometry>
        </mxCell>
        <mxCell id="bHQWfMzYvvroib5OxHJU-94" value="" style="endArrow=classic;html=1;rounded=0;labelBackgroundColor=default;fontFamily=Times New Roman;fontSize=14;fontColor=default;strokeColor=default;strokeWidth=2;shape=connector;exitX=1.007;exitY=0.098;exitDx=0;exitDy=0;exitPerimeter=0;entryX=-0.071;entryY=0.048;entryDx=0;entryDy=0;entryPerimeter=0;endSize=4;" parent="1" edge="1">
          <mxGeometry width="50" height="50" relative="1" as="geometry">
            <mxPoint x="550" y="470.50000000000006" as="sourcePoint" />
            <mxPoint x="816.3199999999998" y="471.1999999999999" as="targetPoint" />
          </mxGeometry>
        </mxCell>
        <mxCell id="bHQWfMzYvvroib5OxHJU-106" value="MemRdCtrl[2:0]" style="edgeLabel;html=1;align=center;verticalAlign=middle;resizable=0;points=[];fontSize=8;fontFamily=Times New Roman;fontColor=default;" parent="bHQWfMzYvvroib5OxHJU-94" vertex="1" connectable="0">
          <mxGeometry x="-0.7201" y="1" relative="1" as="geometry">
            <mxPoint x="17" as="offset" />
          </mxGeometry>
        </mxCell>
        <mxCell id="bHQWfMzYvvroib5OxHJU-95" value="" style="endArrow=classic;html=1;rounded=0;labelBackgroundColor=default;fontFamily=Times New Roman;fontSize=14;fontColor=default;strokeColor=default;strokeWidth=2;shape=connector;exitX=1.007;exitY=0.098;exitDx=0;exitDy=0;exitPerimeter=0;entryX=-0.071;entryY=0.048;entryDx=0;entryDy=0;entryPerimeter=0;endSize=4;" parent="1" edge="1">
          <mxGeometry width="50" height="50" relative="1" as="geometry">
            <mxPoint x="550" y="490.0000000000001" as="sourcePoint" />
            <mxPoint x="816.3199999999998" y="490.69999999999993" as="targetPoint" />
          </mxGeometry>
        </mxCell>
        <mxCell id="bHQWfMzYvvroib5OxHJU-109" value="ALUSrcASel" style="edgeLabel;html=1;align=center;verticalAlign=middle;resizable=0;points=[];fontSize=8;fontFamily=Times New Roman;fontColor=default;" parent="bHQWfMzYvvroib5OxHJU-95" vertex="1" connectable="0">
          <mxGeometry x="-0.7414" relative="1" as="geometry">
            <mxPoint x="21" as="offset" />
          </mxGeometry>
        </mxCell>
        <mxCell id="bHQWfMzYvvroib5OxHJU-96" value="" style="endArrow=classic;html=1;rounded=0;labelBackgroundColor=default;fontFamily=Times New Roman;fontSize=14;fontColor=default;strokeColor=#6c8ebf;strokeWidth=2;shape=connector;exitX=1.007;exitY=0.098;exitDx=0;exitDy=0;exitPerimeter=0;endSize=1;entryX=0.5;entryY=0;entryDx=0;entryDy=0;fillColor=#dae8fc;" parent="1" target="bHQWfMzYvvroib5OxHJU-127" edge="1">
          <mxGeometry width="50" height="50" relative="1" as="geometry">
            <mxPoint x="550" y="510.0000000000001" as="sourcePoint" />
            <mxPoint x="500" y="940" as="targetPoint" />
            <Array as="points">
              <mxPoint x="570" y="510" />
              <mxPoint x="570" y="630" />
              <mxPoint x="370" y="630" />
              <mxPoint x="370" y="940" />
              <mxPoint x="495" y="940" />
            </Array>
          </mxGeometry>
        </mxCell>
        <mxCell id="bHQWfMzYvvroib5OxHJU-114" value="ImmSel[3:0]" style="edgeLabel;html=1;align=center;verticalAlign=middle;resizable=0;points=[];fontSize=8;fontFamily=Times New Roman;fontColor=default;" parent="bHQWfMzYvvroib5OxHJU-96" vertex="1" connectable="0">
          <mxGeometry x="-0.7414" relative="1" as="geometry">
            <mxPoint x="-200" y="84" as="offset" />
          </mxGeometry>
        </mxCell>
        <mxCell id="bHQWfMzYvvroib5OxHJU-97" value="" style="endArrow=classic;html=1;rounded=0;labelBackgroundColor=default;fontFamily=Times New Roman;fontSize=14;fontColor=default;strokeColor=default;strokeWidth=2;shape=connector;exitX=1.007;exitY=0.098;exitDx=0;exitDy=0;exitPerimeter=0;entryX=-0.071;entryY=0.048;entryDx=0;entryDy=0;entryPerimeter=0;endSize=4;" parent="1" edge="1">
          <mxGeometry width="50" height="50" relative="1" as="geometry">
            <mxPoint x="550" y="530.0000000000001" as="sourcePoint" />
            <mxPoint x="816.3199999999997" y="530.6999999999999" as="targetPoint" />
          </mxGeometry>
        </mxCell>
        <mxCell id="bHQWfMzYvvroib5OxHJU-117" value="Jal" style="edgeLabel;html=1;align=center;verticalAlign=middle;resizable=0;points=[];fontSize=8;fontFamily=Times New Roman;fontColor=default;" parent="bHQWfMzYvvroib5OxHJU-97" vertex="1" connectable="0">
          <mxGeometry x="-0.6297" relative="1" as="geometry">
            <mxPoint x="111" as="offset" />
          </mxGeometry>
        </mxCell>
        <mxCell id="bHQWfMzYvvroib5OxHJU-100" value="" style="endArrow=classic;html=1;rounded=0;labelBackgroundColor=default;fontFamily=Times New Roman;fontSize=14;fontColor=default;strokeColor=default;strokeWidth=2;shape=connector;exitX=1.007;exitY=0.098;exitDx=0;exitDy=0;exitPerimeter=0;entryX=-0.071;entryY=0.048;entryDx=0;entryDy=0;entryPerimeter=0;endSize=4;" parent="1" edge="1">
          <mxGeometry width="50" height="50" relative="1" as="geometry">
            <mxPoint x="550" y="550.0000000000001" as="sourcePoint" />
            <mxPoint x="816.3199999999997" y="550.6999999999999" as="targetPoint" />
          </mxGeometry>
        </mxCell>
        <mxCell id="bHQWfMzYvvroib5OxHJU-120" value="RS1Use" style="edgeLabel;html=1;align=center;verticalAlign=middle;resizable=0;points=[];fontSize=8;fontFamily=Times New Roman;fontColor=default;" parent="bHQWfMzYvvroib5OxHJU-100" vertex="1" connectable="0">
          <mxGeometry x="-0.7254" y="1" relative="1" as="geometry">
            <mxPoint x="123" as="offset" />
          </mxGeometry>
        </mxCell>
        <mxCell id="bHQWfMzYvvroib5OxHJU-101" value="" style="endArrow=classic;html=1;rounded=0;labelBackgroundColor=default;fontFamily=Times New Roman;fontSize=14;fontColor=default;strokeColor=default;strokeWidth=2;shape=connector;exitX=1.007;exitY=0.098;exitDx=0;exitDy=0;exitPerimeter=0;entryX=-0.071;entryY=0.048;entryDx=0;entryDy=0;entryPerimeter=0;endSize=4;" parent="1" edge="1">
          <mxGeometry width="50" height="50" relative="1" as="geometry">
            <mxPoint x="550" y="560.0000000000001" as="sourcePoint" />
            <mxPoint x="816.3199999999997" y="560.6999999999999" as="targetPoint" />
          </mxGeometry>
        </mxCell>
        <mxCell id="bHQWfMzYvvroib5OxHJU-121" value="RS2Use" style="edgeLabel;html=1;align=center;verticalAlign=middle;resizable=0;points=[];fontSize=8;fontFamily=Times New Roman;fontColor=default;" parent="bHQWfMzYvvroib5OxHJU-101" vertex="1" connectable="0">
          <mxGeometry x="0.6033" y="-1" relative="1" as="geometry">
            <mxPoint x="8" as="offset" />
          </mxGeometry>
        </mxCell>
        <mxCell id="bHQWfMzYvvroib5OxHJU-102" value="" style="endArrow=classic;html=1;rounded=0;labelBackgroundColor=default;fontFamily=Times New Roman;fontSize=14;fontColor=default;strokeColor=default;strokeWidth=2;shape=connector;exitX=1.007;exitY=0.098;exitDx=0;exitDy=0;exitPerimeter=0;entryX=-0.071;entryY=0.048;entryDx=0;entryDy=0;entryPerimeter=0;endSize=4;" parent="1" edge="1">
          <mxGeometry width="50" height="50" relative="1" as="geometry">
            <mxPoint x="550" y="438.65999999999997" as="sourcePoint" />
            <mxPoint x="816.3199999999998" y="439.36" as="targetPoint" />
          </mxGeometry>
        </mxCell>
        <mxCell id="bHQWfMzYvvroib5OxHJU-103" value="Mem2Reg_ID" style="edgeLabel;html=1;align=center;verticalAlign=middle;resizable=0;points=[];fontSize=8;fontFamily=Times New Roman;fontColor=default;endArrow=classic;rounded=0;strokeColor=default;strokeWidth=2;endSize=4;" parent="bHQWfMzYvvroib5OxHJU-102" vertex="1" connectable="0">
          <mxGeometry x="-0.5229" y="1" relative="1" as="geometry">
            <mxPoint x="175" as="offset" />
          </mxGeometry>
        </mxCell>
        <mxCell id="bHQWfMzYvvroib5OxHJU-104" value="" style="endArrow=classic;html=1;rounded=0;labelBackgroundColor=default;fontFamily=Times New Roman;fontSize=8;fontColor=default;strokeColor=default;strokeWidth=2;shape=connector;exitX=1.007;exitY=0.098;exitDx=0;exitDy=0;exitPerimeter=0;entryX=-0.071;entryY=0.048;entryDx=0;entryDy=0;entryPerimeter=0;endSize=4;" parent="1" edge="1">
          <mxGeometry width="50" height="50" relative="1" as="geometry">
            <mxPoint x="550" y="460" as="sourcePoint" />
            <mxPoint x="816.3199999999997" y="460.6999999999998" as="targetPoint" />
          </mxGeometry>
        </mxCell>
        <mxCell id="bHQWfMzYvvroib5OxHJU-105" value="MemWrCtrl[1:0]" style="edgeLabel;html=1;align=center;verticalAlign=middle;resizable=0;points=[];fontSize=8;fontFamily=Times New Roman;fontColor=default;" parent="bHQWfMzYvvroib5OxHJU-104" vertex="1" connectable="0">
          <mxGeometry x="0.6457" y="2" relative="1" as="geometry">
            <mxPoint as="offset" />
          </mxGeometry>
        </mxCell>
        <mxCell id="bHQWfMzYvvroib5OxHJU-107" value="" style="endArrow=classic;html=1;rounded=0;labelBackgroundColor=default;fontFamily=Times New Roman;fontSize=8;fontColor=default;strokeColor=default;strokeWidth=2;shape=connector;exitX=1.007;exitY=0.098;exitDx=0;exitDy=0;exitPerimeter=0;entryX=-0.071;entryY=0.048;entryDx=0;entryDy=0;entryPerimeter=0;endSize=4;" parent="1" edge="1">
          <mxGeometry width="50" height="50" relative="1" as="geometry">
            <mxPoint x="550" y="480.5" as="sourcePoint" />
            <mxPoint x="816.3199999999997" y="481.1999999999998" as="targetPoint" />
          </mxGeometry>
        </mxCell>
        <mxCell id="bHQWfMzYvvroib5OxHJU-108" value="ALUCtrl[3:0]" style="edgeLabel;html=1;align=center;verticalAlign=middle;resizable=0;points=[];fontSize=8;fontFamily=Times New Roman;fontColor=default;" parent="bHQWfMzYvvroib5OxHJU-107" vertex="1" connectable="0">
          <mxGeometry x="0.6457" y="2" relative="1" as="geometry">
            <mxPoint y="1" as="offset" />
          </mxGeometry>
        </mxCell>
        <mxCell id="bHQWfMzYvvroib5OxHJU-112" value="" style="endArrow=classic;html=1;rounded=0;labelBackgroundColor=default;fontFamily=Times New Roman;fontSize=8;fontColor=default;strokeColor=default;strokeWidth=2;shape=connector;exitX=1.007;exitY=0.098;exitDx=0;exitDy=0;exitPerimeter=0;entryX=-0.071;entryY=0.048;entryDx=0;entryDy=0;entryPerimeter=0;endSize=4;" parent="1" edge="1">
          <mxGeometry width="50" height="50" relative="1" as="geometry">
            <mxPoint x="550" y="500" as="sourcePoint" />
            <mxPoint x="816.3199999999997" y="500.6999999999998" as="targetPoint" />
          </mxGeometry>
        </mxCell>
        <mxCell id="bHQWfMzYvvroib5OxHJU-113" value="ALUSrcBSel" style="edgeLabel;html=1;align=center;verticalAlign=middle;resizable=0;points=[];fontSize=8;fontFamily=Times New Roman;fontColor=default;" parent="bHQWfMzYvvroib5OxHJU-112" vertex="1" connectable="0">
          <mxGeometry x="0.6457" y="2" relative="1" as="geometry">
            <mxPoint as="offset" />
          </mxGeometry>
        </mxCell>
        <mxCell id="bHQWfMzYvvroib5OxHJU-115" value="" style="endArrow=classic;html=1;rounded=0;labelBackgroundColor=default;fontFamily=Times New Roman;fontSize=8;fontColor=default;strokeColor=default;strokeWidth=2;shape=connector;exitX=1.007;exitY=0.098;exitDx=0;exitDy=0;exitPerimeter=0;entryX=-0.071;entryY=0.048;entryDx=0;entryDy=0;entryPerimeter=0;endSize=4;" parent="1" edge="1">
          <mxGeometry width="50" height="50" relative="1" as="geometry">
            <mxPoint x="550" y="520" as="sourcePoint" />
            <mxPoint x="816.3199999999997" y="520.6999999999998" as="targetPoint" />
          </mxGeometry>
        </mxCell>
        <mxCell id="bHQWfMzYvvroib5OxHJU-116" value="Jalr" style="edgeLabel;html=1;align=center;verticalAlign=middle;resizable=0;points=[];fontSize=8;fontFamily=Times New Roman;fontColor=default;" parent="bHQWfMzYvvroib5OxHJU-115" vertex="1" connectable="0">
          <mxGeometry x="0.6457" y="2" relative="1" as="geometry">
            <mxPoint as="offset" />
          </mxGeometry>
        </mxCell>
        <mxCell id="bHQWfMzYvvroib5OxHJU-118" value="" style="endArrow=classic;html=1;rounded=0;labelBackgroundColor=default;fontFamily=Times New Roman;fontSize=8;fontColor=default;strokeColor=#6c8ebf;strokeWidth=2;shape=connector;exitX=1.007;exitY=0.098;exitDx=0;exitDy=0;exitPerimeter=0;endSize=4;entryX=0.5;entryY=0;entryDx=0;entryDy=0;fillColor=#dae8fc;" parent="1" target="bHQWfMzYvvroib5OxHJU-89" edge="1">
          <mxGeometry width="50" height="50" relative="1" as="geometry">
            <mxPoint x="550" y="540" as="sourcePoint" />
            <mxPoint x="590" y="600" as="targetPoint" />
            <Array as="points">
              <mxPoint x="670" y="540" />
            </Array>
          </mxGeometry>
        </mxCell>
        <mxCell id="bHQWfMzYvvroib5OxHJU-119" value="BrType[2:0]" style="edgeLabel;html=1;align=center;verticalAlign=middle;resizable=0;points=[];fontSize=8;fontFamily=Times New Roman;fontColor=default;" parent="bHQWfMzYvvroib5OxHJU-118" vertex="1" connectable="0">
          <mxGeometry x="0.6457" y="2" relative="1" as="geometry">
            <mxPoint x="-42" y="-16" as="offset" />
          </mxGeometry>
        </mxCell>
        <mxCell id="bHQWfMzYvvroib5OxHJU-123" style="edgeStyle=orthogonalEdgeStyle;rounded=0;orthogonalLoop=1;jettySize=auto;html=1;strokeWidth=3;fontSize=14;fontFamily=Times New Roman;" parent="1" edge="1">
          <mxGeometry relative="1" as="geometry">
            <mxPoint x="310" y="760" as="sourcePoint" />
            <mxPoint x="480" y="759.5" as="targetPoint" />
            <Array as="points">
              <mxPoint x="330" y="760" />
              <mxPoint x="330" y="760" />
            </Array>
          </mxGeometry>
        </mxCell>
        <mxCell id="bHQWfMzYvvroib5OxHJU-124" value="raddr2_ID" style="edgeLabel;html=1;align=center;verticalAlign=middle;resizable=0;points=[];fontSize=14;fontFamily=Times New Roman;" parent="bHQWfMzYvvroib5OxHJU-123" vertex="1" connectable="0">
          <mxGeometry x="-0.1719" y="1" relative="1" as="geometry">
            <mxPoint x="39" y="1" as="offset" />
          </mxGeometry>
        </mxCell>
        <mxCell id="bHQWfMzYvvroib5OxHJU-125" style="edgeStyle=orthogonalEdgeStyle;rounded=0;orthogonalLoop=1;jettySize=auto;html=1;strokeWidth=3;fontSize=14;exitX=1.042;exitY=0.898;exitDx=0;exitDy=0;exitPerimeter=0;entryX=-0.002;entryY=0.613;entryDx=0;entryDy=0;entryPerimeter=0;fontFamily=Times New Roman;" parent="1" target="bHQWfMzYvvroib5OxHJU-5" edge="1">
          <mxGeometry relative="1" as="geometry">
            <mxPoint x="1991.6800000000003" y="903.8600000000001" as="sourcePoint" />
            <mxPoint x="480" y="797" as="targetPoint" />
            <Array as="points">
              <mxPoint x="2120" y="904" />
              <mxPoint x="2120" y="1087" />
              <mxPoint x="340" y="1087" />
              <mxPoint x="340" y="803" />
            </Array>
          </mxGeometry>
        </mxCell>
        <mxCell id="bHQWfMzYvvroib5OxHJU-126" value="waddr_WB" style="edgeLabel;html=1;align=center;verticalAlign=middle;resizable=0;points=[];fontSize=14;fontFamily=Times New Roman;" parent="bHQWfMzYvvroib5OxHJU-125" vertex="1" connectable="0">
          <mxGeometry x="-0.1719" y="1" relative="1" as="geometry">
            <mxPoint x="53" as="offset" />
          </mxGeometry>
        </mxCell>
        <mxCell id="bHQWfMzYvvroib5OxHJU-127" value="ImmGen" style="ellipse;whiteSpace=wrap;html=1;rounded=0;labelBackgroundColor=default;fontFamily=Times New Roman;fontSize=8;fontColor=default;endArrow=classic;endSize=4;strokeColor=default;strokeWidth=2;fillColor=none;gradientColor=none;" parent="1" vertex="1">
          <mxGeometry x="450" y="950" width="90" height="30" as="geometry" />
        </mxCell>
        <mxCell id="bHQWfMzYvvroib5OxHJU-128" style="edgeStyle=orthogonalEdgeStyle;rounded=0;orthogonalLoop=1;jettySize=auto;html=1;strokeWidth=3;fontSize=14;entryX=0;entryY=0.5;entryDx=0;entryDy=0;fontFamily=Times New Roman;" parent="1" target="bHQWfMzYvvroib5OxHJU-127" edge="1">
          <mxGeometry relative="1" as="geometry">
            <mxPoint x="290" y="810" as="sourcePoint" />
            <mxPoint x="470" y="980" as="targetPoint" />
            <Array as="points">
              <mxPoint x="310" y="810" />
              <mxPoint x="310" y="965" />
            </Array>
          </mxGeometry>
        </mxCell>
        <mxCell id="bHQWfMzYvvroib5OxHJU-130" value="inst_ID[31:0]" style="edgeLabel;html=1;align=center;verticalAlign=middle;resizable=0;points=[];fontSize=8;fontFamily=Times New Roman;fontColor=default;" parent="bHQWfMzYvvroib5OxHJU-128" vertex="1" connectable="0">
          <mxGeometry x="0.1852" y="1" relative="1" as="geometry">
            <mxPoint x="-12" y="-24" as="offset" />
          </mxGeometry>
        </mxCell>
        <mxCell id="bHQWfMzYvvroib5OxHJU-131" style="edgeStyle=orthogonalEdgeStyle;rounded=0;orthogonalLoop=1;jettySize=auto;html=1;strokeWidth=3;fontSize=14;startArrow=none;fontFamily=Times New Roman;" parent="1" source="bHQWfMzYvvroib5OxHJU-138" edge="1">
          <mxGeometry relative="1" as="geometry">
            <mxPoint x="639" y="720" as="sourcePoint" />
            <mxPoint x="820" y="720" as="targetPoint" />
            <Array as="points">
              <mxPoint x="820" y="720" />
            </Array>
          </mxGeometry>
        </mxCell>
        <mxCell id="bHQWfMzYvvroib5OxHJU-133" style="edgeStyle=orthogonalEdgeStyle;rounded=0;orthogonalLoop=1;jettySize=auto;html=1;strokeWidth=3;fontSize=14;entryX=0.014;entryY=0.941;entryDx=0;entryDy=0;entryPerimeter=0;fontFamily=Times New Roman;" parent="1" target="bHQWfMzYvvroib5OxHJU-4" edge="1">
          <mxGeometry relative="1" as="geometry">
            <mxPoint x="540" y="965" as="sourcePoint" />
            <mxPoint x="721" y="965" as="targetPoint" />
          </mxGeometry>
        </mxCell>
        <mxCell id="bHQWfMzYvvroib5OxHJU-134" value="imm_out[31:0]" style="edgeLabel;html=1;align=center;verticalAlign=middle;resizable=0;points=[];fontSize=14;fontFamily=Times New Roman;" parent="bHQWfMzYvvroib5OxHJU-133" vertex="1" connectable="0">
          <mxGeometry x="-0.1719" y="1" relative="1" as="geometry">
            <mxPoint x="-58" y="1" as="offset" />
          </mxGeometry>
        </mxCell>
        <mxCell id="bHQWfMzYvvroib5OxHJU-135" style="edgeStyle=orthogonalEdgeStyle;rounded=0;orthogonalLoop=1;jettySize=auto;html=1;strokeWidth=3;fontSize=14;entryX=0.25;entryY=1;entryDx=0;entryDy=0;fontFamily=Times New Roman;" parent="1" target="bHQWfMzYvvroib5OxHJU-89" edge="1">
          <mxGeometry relative="1" as="geometry">
            <mxPoint x="660" y="720" as="sourcePoint" />
            <mxPoint x="640" y="640" as="targetPoint" />
            <Array as="points">
              <mxPoint x="660" y="680" />
              <mxPoint x="640" y="680" />
            </Array>
          </mxGeometry>
        </mxCell>
        <mxCell id="bHQWfMzYvvroib5OxHJU-137" style="edgeStyle=orthogonalEdgeStyle;rounded=0;orthogonalLoop=1;jettySize=auto;html=1;strokeWidth=3;fontSize=14;entryX=0.75;entryY=1;entryDx=0;entryDy=0;fontFamily=Times New Roman;" parent="1" target="bHQWfMzYvvroib5OxHJU-89" edge="1">
          <mxGeometry relative="1" as="geometry">
            <mxPoint x="700" y="840" as="sourcePoint" />
            <mxPoint x="700" y="640" as="targetPoint" />
          </mxGeometry>
        </mxCell>
        <mxCell id="bHQWfMzYvvroib5OxHJU-138" value="" style="shape=image;html=1;verticalAlign=top;verticalLabelPosition=bottom;labelBackgroundColor=#ffffff;imageAspect=0;aspect=fixed;image=https://cdn4.iconfinder.com/data/icons/essential-app-2/16/record-round-circle-dot-128.png;fontFamily=Times New Roman;fontSize=14;fontColor=default;" parent="1" vertex="1">
          <mxGeometry x="656" y="715" width="9" height="9" as="geometry" />
        </mxCell>
        <mxCell id="bHQWfMzYvvroib5OxHJU-142" value="" style="edgeStyle=orthogonalEdgeStyle;rounded=0;orthogonalLoop=1;jettySize=auto;html=1;strokeWidth=3;fontSize=14;endArrow=none;fontFamily=Times New Roman;" parent="1" target="bHQWfMzYvvroib5OxHJU-138" edge="1">
          <mxGeometry relative="1" as="geometry">
            <mxPoint x="639" y="720" as="sourcePoint" />
            <mxPoint x="820" y="720" as="targetPoint" />
            <Array as="points" />
          </mxGeometry>
        </mxCell>
        <mxCell id="bHQWfMzYvvroib5OxHJU-143" value="rdata1" style="edgeLabel;html=1;align=center;verticalAlign=middle;resizable=0;points=[];fontSize=14;fontFamily=Times New Roman;" parent="bHQWfMzYvvroib5OxHJU-142" vertex="1" connectable="0">
          <mxGeometry x="-0.1719" y="1" relative="1" as="geometry">
            <mxPoint x="100" y="1" as="offset" />
          </mxGeometry>
        </mxCell>
        <mxCell id="bHQWfMzYvvroib5OxHJU-144" value="" style="shape=image;html=1;verticalAlign=top;verticalLabelPosition=bottom;labelBackgroundColor=#ffffff;imageAspect=0;aspect=fixed;image=https://cdn4.iconfinder.com/data/icons/essential-app-2/16/record-round-circle-dot-128.png;fontFamily=Times New Roman;fontSize=14;fontColor=default;" parent="1" vertex="1">
          <mxGeometry x="694" y="836" width="9" height="9" as="geometry" />
        </mxCell>
        <mxCell id="bHQWfMzYvvroib5OxHJU-165" value="" style="group;fontFamily=Times New Roman;" parent="1" vertex="1" connectable="0">
          <mxGeometry x="990" y="679.5" width="40" height="80" as="geometry" />
        </mxCell>
        <mxCell id="bHQWfMzYvvroib5OxHJU-161" value="" style="endArrow=none;html=1;rounded=0;labelBackgroundColor=default;fontFamily=Times New Roman;fontSize=14;fontColor=default;strokeColor=default;strokeWidth=3;shape=connector;" parent="bHQWfMzYvvroib5OxHJU-165" edge="1">
          <mxGeometry width="50" height="50" relative="1" as="geometry">
            <mxPoint y="60" as="sourcePoint" />
            <mxPoint y="20" as="targetPoint" />
          </mxGeometry>
        </mxCell>
        <mxCell id="bHQWfMzYvvroib5OxHJU-162" value="" style="endArrow=none;html=1;rounded=0;labelBackgroundColor=default;fontFamily=Times New Roman;fontSize=14;fontColor=default;strokeColor=default;strokeWidth=3;shape=connector;" parent="bHQWfMzYvvroib5OxHJU-165" edge="1">
          <mxGeometry width="50" height="50" relative="1" as="geometry">
            <mxPoint x="40" y="60" as="sourcePoint" />
            <mxPoint x="40" y="20" as="targetPoint" />
          </mxGeometry>
        </mxCell>
        <mxCell id="bHQWfMzYvvroib5OxHJU-163" value="" style="endArrow=none;html=1;labelBackgroundColor=default;fontFamily=Times New Roman;fontSize=14;fontColor=default;strokeColor=default;strokeWidth=3;shape=connector;curved=1;" parent="bHQWfMzYvvroib5OxHJU-165" edge="1">
          <mxGeometry width="50" height="50" relative="1" as="geometry">
            <mxPoint y="20" as="sourcePoint" />
            <mxPoint x="40" y="20" as="targetPoint" />
            <Array as="points">
              <mxPoint />
              <mxPoint x="40" />
            </Array>
          </mxGeometry>
        </mxCell>
        <mxCell id="bHQWfMzYvvroib5OxHJU-164" value="" style="endArrow=none;html=1;labelBackgroundColor=default;fontFamily=Times New Roman;fontSize=14;fontColor=default;strokeColor=default;strokeWidth=3;shape=connector;curved=1;" parent="bHQWfMzYvvroib5OxHJU-165" edge="1">
          <mxGeometry width="50" height="50" relative="1" as="geometry">
            <mxPoint x="40" y="60" as="sourcePoint" />
            <mxPoint y="60" as="targetPoint" />
            <Array as="points">
              <mxPoint x="40" y="80" />
              <mxPoint y="80" />
            </Array>
          </mxGeometry>
        </mxCell>
        <mxCell id="bHQWfMzYvvroib5OxHJU-166" value="" style="group;fontFamily=Times New Roman;" parent="1" vertex="1" connectable="0">
          <mxGeometry x="990" y="790" width="40" height="80" as="geometry" />
        </mxCell>
        <mxCell id="bHQWfMzYvvroib5OxHJU-153" value="" style="endArrow=none;html=1;rounded=0;labelBackgroundColor=default;fontFamily=Times New Roman;fontSize=14;fontColor=default;strokeColor=default;strokeWidth=3;shape=connector;" parent="bHQWfMzYvvroib5OxHJU-166" edge="1">
          <mxGeometry width="50" height="50" relative="1" as="geometry">
            <mxPoint y="60" as="sourcePoint" />
            <mxPoint y="20" as="targetPoint" />
          </mxGeometry>
        </mxCell>
        <mxCell id="bHQWfMzYvvroib5OxHJU-154" value="" style="endArrow=none;html=1;rounded=0;labelBackgroundColor=default;fontFamily=Times New Roman;fontSize=14;fontColor=default;strokeColor=default;strokeWidth=3;shape=connector;" parent="bHQWfMzYvvroib5OxHJU-166" edge="1">
          <mxGeometry width="50" height="50" relative="1" as="geometry">
            <mxPoint x="40" y="60" as="sourcePoint" />
            <mxPoint x="40" y="20" as="targetPoint" />
          </mxGeometry>
        </mxCell>
        <mxCell id="bHQWfMzYvvroib5OxHJU-155" value="" style="endArrow=none;html=1;labelBackgroundColor=default;fontFamily=Times New Roman;fontSize=14;fontColor=default;strokeColor=default;strokeWidth=3;shape=connector;curved=1;" parent="bHQWfMzYvvroib5OxHJU-166" edge="1">
          <mxGeometry width="50" height="50" relative="1" as="geometry">
            <mxPoint y="20" as="sourcePoint" />
            <mxPoint x="40" y="20" as="targetPoint" />
            <Array as="points">
              <mxPoint />
              <mxPoint x="40" />
            </Array>
          </mxGeometry>
        </mxCell>
        <mxCell id="bHQWfMzYvvroib5OxHJU-156" value="" style="endArrow=none;html=1;labelBackgroundColor=default;fontFamily=Times New Roman;fontSize=14;fontColor=default;strokeColor=default;strokeWidth=3;shape=connector;curved=1;" parent="bHQWfMzYvvroib5OxHJU-166" edge="1">
          <mxGeometry width="50" height="50" relative="1" as="geometry">
            <mxPoint x="40" y="60" as="sourcePoint" />
            <mxPoint y="60" as="targetPoint" />
            <Array as="points">
              <mxPoint x="40" y="80" />
              <mxPoint y="80" />
            </Array>
          </mxGeometry>
        </mxCell>
        <mxCell id="bHQWfMzYvvroib5OxHJU-168" style="edgeStyle=orthogonalEdgeStyle;shape=connector;rounded=0;orthogonalLoop=1;jettySize=auto;html=1;exitX=1.042;exitY=0.946;exitDx=0;exitDy=0;labelBackgroundColor=default;fontFamily=Times New Roman;fontSize=8;fontColor=default;endArrow=classic;endSize=1;strokeColor=default;strokeWidth=3;exitPerimeter=0;" parent="1" source="bHQWfMzYvvroib5OxHJU-4" edge="1">
          <mxGeometry relative="1" as="geometry">
            <mxPoint x="990" y="850" as="targetPoint" />
            <mxPoint x="869.96" y="848.3299999999999" as="sourcePoint" />
            <Array as="points">
              <mxPoint x="935" y="939" />
              <mxPoint x="935" y="850" />
            </Array>
          </mxGeometry>
        </mxCell>
        <mxCell id="bHQWfMzYvvroib5OxHJU-169" style="edgeStyle=orthogonalEdgeStyle;shape=connector;rounded=0;orthogonalLoop=1;jettySize=auto;html=1;exitX=0.981;exitY=0.564;exitDx=0;exitDy=0;labelBackgroundColor=default;fontFamily=Times New Roman;fontSize=8;fontColor=default;endArrow=classic;endSize=1;strokeColor=default;strokeWidth=3;exitPerimeter=0;" parent="1" source="bHQWfMzYvvroib5OxHJU-4" edge="1">
          <mxGeometry relative="1" as="geometry">
            <mxPoint x="990" y="700" as="targetPoint" />
            <mxPoint x="869.96" y="848.3299999999999" as="sourcePoint" />
            <Array as="points">
              <mxPoint x="890" y="722" />
              <mxPoint x="890" y="700" />
            </Array>
          </mxGeometry>
        </mxCell>
        <mxCell id="bHQWfMzYvvroib5OxHJU-170" style="edgeStyle=orthogonalEdgeStyle;shape=connector;rounded=0;orthogonalLoop=1;jettySize=auto;html=1;labelBackgroundColor=default;fontFamily=Times New Roman;fontSize=8;fontColor=default;endArrow=classic;endSize=1;strokeColor=default;strokeWidth=3;" parent="1" edge="1">
          <mxGeometry relative="1" as="geometry">
            <mxPoint x="1140" y="720" as="targetPoint" />
            <mxPoint x="1030" y="720" as="sourcePoint" />
          </mxGeometry>
        </mxCell>
        <mxCell id="bHQWfMzYvvroib5OxHJU-171" style="edgeStyle=orthogonalEdgeStyle;shape=connector;rounded=0;orthogonalLoop=1;jettySize=auto;html=1;labelBackgroundColor=default;fontFamily=Times New Roman;fontSize=8;fontColor=default;endArrow=classic;endSize=1;strokeColor=default;strokeWidth=3;" parent="1" edge="1">
          <mxGeometry relative="1" as="geometry">
            <mxPoint x="1140" y="810" as="targetPoint" />
            <mxPoint x="1030" y="830" as="sourcePoint" />
            <Array as="points">
              <mxPoint x="1085" y="830" />
              <mxPoint x="1085" y="810" />
            </Array>
          </mxGeometry>
        </mxCell>
        <mxCell id="bHQWfMzYvvroib5OxHJU-174" value="" style="endArrow=classic;html=1;rounded=0;labelBackgroundColor=default;fontFamily=Times New Roman;fontSize=8;fontColor=default;endSize=1;strokeColor=default;strokeWidth=3;shape=connector;entryX=0;entryY=0.649;entryDx=0;entryDy=0;entryPerimeter=0;" parent="1" target="bHQWfMzYvvroib5OxHJU-8" edge="1">
          <mxGeometry width="50" height="50" relative="1" as="geometry">
            <mxPoint x="1220" y="770" as="sourcePoint" />
            <mxPoint x="1230" y="700" as="targetPoint" />
          </mxGeometry>
        </mxCell>
        <mxCell id="bHQWfMzYvvroib5OxHJU-175" value="" style="endArrow=classic;html=1;rounded=0;labelBackgroundColor=default;fontFamily=Times New Roman;fontSize=14;fontColor=default;strokeColor=#FF8000;strokeWidth=2;shape=connector;endSize=4;" parent="1" edge="1">
          <mxGeometry width="50" height="50" relative="1" as="geometry">
            <mxPoint x="860" y="490" as="sourcePoint" />
            <mxPoint x="1010" y="680" as="targetPoint" />
            <Array as="points">
              <mxPoint x="1010" y="490" />
            </Array>
          </mxGeometry>
        </mxCell>
        <mxCell id="bHQWfMzYvvroib5OxHJU-176" value="ALUSrcASel" style="edgeLabel;html=1;align=center;verticalAlign=middle;resizable=0;points=[];fontSize=8;fontFamily=Times New Roman;fontColor=default;" parent="bHQWfMzYvvroib5OxHJU-175" vertex="1" connectable="0">
          <mxGeometry x="-0.7414" relative="1" as="geometry">
            <mxPoint x="21" as="offset" />
          </mxGeometry>
        </mxCell>
        <mxCell id="bHQWfMzYvvroib5OxHJU-177" value="" style="endArrow=classic;html=1;rounded=0;labelBackgroundColor=default;fontFamily=Times New Roman;fontSize=14;fontColor=default;strokeColor=#FF8000;strokeWidth=2;shape=connector;endSize=4;" parent="1" edge="1">
          <mxGeometry width="50" height="50" relative="1" as="geometry">
            <mxPoint x="860" y="500" as="sourcePoint" />
            <mxPoint x="1010" y="790" as="targetPoint" />
            <Array as="points">
              <mxPoint x="1090" y="500" />
              <mxPoint x="1090" y="770" />
              <mxPoint x="1010" y="770" />
            </Array>
          </mxGeometry>
        </mxCell>
        <mxCell id="bHQWfMzYvvroib5OxHJU-178" value="ALUSrcASel" style="edgeLabel;html=1;align=center;verticalAlign=middle;resizable=0;points=[];fontSize=8;fontFamily=Times New Roman;fontColor=default;" parent="bHQWfMzYvvroib5OxHJU-177" vertex="1" connectable="0">
          <mxGeometry x="-0.7414" relative="1" as="geometry">
            <mxPoint x="146" y="79" as="offset" />
          </mxGeometry>
        </mxCell>
        <mxCell id="bHQWfMzYvvroib5OxHJU-179" value="" style="endArrow=classic;html=1;rounded=0;labelBackgroundColor=default;fontFamily=Times New Roman;fontSize=14;fontColor=default;strokeColor=#FF8000;strokeWidth=2;shape=connector;endSize=4;fillColor=#f8cecc;" parent="1" edge="1">
          <mxGeometry width="50" height="50" relative="1" as="geometry">
            <mxPoint x="862" y="480" as="sourcePoint" />
            <mxPoint x="1180" y="715" as="targetPoint" />
            <Array as="points">
              <mxPoint x="1180" y="480" />
            </Array>
          </mxGeometry>
        </mxCell>
        <mxCell id="bHQWfMzYvvroib5OxHJU-180" value="ALUCtrl" style="edgeLabel;html=1;align=center;verticalAlign=middle;resizable=0;points=[];fontSize=8;fontFamily=Times New Roman;fontColor=default;" parent="bHQWfMzYvvroib5OxHJU-179" vertex="1" connectable="0">
          <mxGeometry x="-0.7414" relative="1" as="geometry">
            <mxPoint x="236" y="80" as="offset" />
          </mxGeometry>
        </mxCell>
        <mxCell id="bHQWfMzYvvroib5OxHJU-181" style="edgeStyle=orthogonalEdgeStyle;shape=connector;rounded=0;orthogonalLoop=1;jettySize=auto;html=1;labelBackgroundColor=default;fontFamily=Times New Roman;fontSize=8;fontColor=default;endArrow=classic;endSize=1;strokeColor=default;strokeWidth=3;entryX=-0.014;entryY=0.843;entryDx=0;entryDy=0;entryPerimeter=0;" parent="1" target="bHQWfMzYvvroib5OxHJU-8" edge="1">
          <mxGeometry relative="1" as="geometry">
            <mxPoint x="1000" y="860" as="targetPoint" />
            <mxPoint x="910" y="840" as="sourcePoint" />
            <Array as="points">
              <mxPoint x="910" y="880" />
              <mxPoint x="1419" y="880" />
            </Array>
          </mxGeometry>
        </mxCell>
        <mxCell id="bHQWfMzYvvroib5OxHJU-182" style="edgeStyle=orthogonalEdgeStyle;shape=connector;rounded=0;orthogonalLoop=1;jettySize=auto;html=1;labelBackgroundColor=default;fontFamily=Times New Roman;fontSize=8;fontColor=default;endArrow=classic;endSize=1;strokeColor=default;strokeWidth=3;entryX=0;entryY=0.877;entryDx=0;entryDy=0;entryPerimeter=0;" parent="1" edge="1">
          <mxGeometry relative="1" as="geometry">
            <mxPoint x="820" y="895.8900000000001" as="targetPoint" />
            <mxPoint x="310" y="896" as="sourcePoint" />
            <Array as="points">
              <mxPoint x="310" y="896" />
            </Array>
          </mxGeometry>
        </mxCell>
        <mxCell id="bHQWfMzYvvroib5OxHJU-183" value="waddr" style="edgeLabel;html=1;align=center;verticalAlign=middle;resizable=0;points=[];fontSize=8;fontFamily=Times New Roman;fontColor=default;" parent="bHQWfMzYvvroib5OxHJU-182" vertex="1" connectable="0">
          <mxGeometry x="0.1174" y="-2" relative="1" as="geometry">
            <mxPoint as="offset" />
          </mxGeometry>
        </mxCell>
        <mxCell id="bHQWfMzYvvroib5OxHJU-186" value="" style="endArrow=classic;html=1;rounded=0;labelBackgroundColor=default;fontFamily=Times New Roman;fontSize=8;fontColor=default;endSize=1;strokeColor=default;strokeWidth=3;shape=connector;exitX=0.972;exitY=0.877;exitDx=0;exitDy=0;exitPerimeter=0;entryX=-0.014;entryY=0.881;entryDx=0;entryDy=0;entryPerimeter=0;" parent="1" source="bHQWfMzYvvroib5OxHJU-4" target="bHQWfMzYvvroib5OxHJU-8" edge="1">
          <mxGeometry width="50" height="50" relative="1" as="geometry">
            <mxPoint x="1060" y="870" as="sourcePoint" />
            <mxPoint x="1110" y="820" as="targetPoint" />
          </mxGeometry>
        </mxCell>
        <mxCell id="bHQWfMzYvvroib5OxHJU-187" value="" style="endArrow=classic;html=1;rounded=0;labelBackgroundColor=default;fontFamily=Times New Roman;fontSize=14;fontColor=default;strokeColor=default;strokeWidth=2;shape=connector;exitX=1.007;exitY=0.098;exitDx=0;exitDy=0;exitPerimeter=0;entryX=0;entryY=0.053;entryDx=0;entryDy=0;entryPerimeter=0;endSize=4;" parent="1" target="bHQWfMzYvvroib5OxHJU-8" edge="1">
          <mxGeometry width="50" height="50" relative="1" as="geometry">
            <mxPoint x="860.0000000000002" y="428.00000000000006" as="sourcePoint" />
            <mxPoint x="1236.32" y="428.6999999999999" as="targetPoint" />
          </mxGeometry>
        </mxCell>
        <mxCell id="bHQWfMzYvvroib5OxHJU-188" value="&lt;font style=&quot;font-size: 8px;&quot;&gt;RegWrite_EX&lt;/font&gt;" style="edgeLabel;html=1;align=center;verticalAlign=middle;resizable=0;points=[];fontSize=14;fontFamily=Times New Roman;fontColor=default;endArrow=classic;rounded=0;strokeColor=default;strokeWidth=2;endSize=4;" parent="bHQWfMzYvvroib5OxHJU-187" vertex="1" connectable="0">
          <mxGeometry x="-0.5229" y="1" relative="1" as="geometry">
            <mxPoint x="-21" as="offset" />
          </mxGeometry>
        </mxCell>
        <mxCell id="bHQWfMzYvvroib5OxHJU-189" value="" style="endArrow=classic;html=1;rounded=0;labelBackgroundColor=default;fontFamily=Times New Roman;fontSize=14;fontColor=default;strokeColor=default;strokeWidth=2;shape=connector;exitX=1.007;exitY=0.098;exitDx=0;exitDy=0;exitPerimeter=0;entryX=0;entryY=0.053;entryDx=0;entryDy=0;entryPerimeter=0;endSize=4;" parent="1" edge="1">
          <mxGeometry width="50" height="50" relative="1" as="geometry">
            <mxPoint x="860" y="438" as="sourcePoint" />
            <mxPoint x="1420" y="440.21000000000004" as="targetPoint" />
          </mxGeometry>
        </mxCell>
        <mxCell id="bHQWfMzYvvroib5OxHJU-190" value="&lt;font style=&quot;font-size: 8px;&quot;&gt;Mem2Reg_EX&lt;/font&gt;" style="edgeLabel;html=1;align=center;verticalAlign=middle;resizable=0;points=[];fontSize=14;fontFamily=Times New Roman;fontColor=default;endArrow=classic;rounded=0;strokeColor=default;strokeWidth=2;endSize=4;" parent="bHQWfMzYvvroib5OxHJU-189" vertex="1" connectable="0">
          <mxGeometry x="-0.5229" y="1" relative="1" as="geometry">
            <mxPoint x="337" y="1" as="offset" />
          </mxGeometry>
        </mxCell>
        <mxCell id="bHQWfMzYvvroib5OxHJU-191" value="" style="endArrow=classic;html=1;rounded=0;labelBackgroundColor=default;fontFamily=Times New Roman;fontSize=14;fontColor=default;strokeColor=default;strokeWidth=2;shape=connector;exitX=1.007;exitY=0.098;exitDx=0;exitDy=0;exitPerimeter=0;entryX=0;entryY=0.053;entryDx=0;entryDy=0;entryPerimeter=0;endSize=4;" parent="1" edge="1">
          <mxGeometry width="50" height="50" relative="1" as="geometry">
            <mxPoint x="860" y="448" as="sourcePoint" />
            <mxPoint x="1420" y="450.21000000000004" as="targetPoint" />
          </mxGeometry>
        </mxCell>
        <mxCell id="bHQWfMzYvvroib5OxHJU-192" value="&lt;font style=&quot;font-size: 8px;&quot;&gt;MemRW_EX&lt;/font&gt;" style="edgeLabel;html=1;align=center;verticalAlign=middle;resizable=0;points=[];fontSize=14;fontFamily=Times New Roman;fontColor=default;endArrow=classic;rounded=0;strokeColor=default;strokeWidth=2;endSize=4;" parent="bHQWfMzYvvroib5OxHJU-191" vertex="1" connectable="0">
          <mxGeometry x="-0.5229" y="1" relative="1" as="geometry">
            <mxPoint x="-23" as="offset" />
          </mxGeometry>
        </mxCell>
        <mxCell id="bHQWfMzYvvroib5OxHJU-193" value="" style="endArrow=classic;html=1;rounded=0;labelBackgroundColor=default;fontFamily=Times New Roman;fontSize=14;fontColor=default;strokeColor=default;strokeWidth=2;shape=connector;exitX=1.007;exitY=0.098;exitDx=0;exitDy=0;exitPerimeter=0;entryX=0;entryY=0.053;entryDx=0;entryDy=0;entryPerimeter=0;endSize=4;" parent="1" edge="1">
          <mxGeometry width="50" height="50" relative="1" as="geometry">
            <mxPoint x="860" y="458" as="sourcePoint" />
            <mxPoint x="1420" y="460.21000000000004" as="targetPoint" />
          </mxGeometry>
        </mxCell>
        <mxCell id="bHQWfMzYvvroib5OxHJU-194" value="&lt;font style=&quot;font-size: 8px;&quot;&gt;MemWrCtrl_EX[1:0]&lt;/font&gt;" style="edgeLabel;html=1;align=center;verticalAlign=middle;resizable=0;points=[];fontSize=14;fontFamily=Times New Roman;fontColor=default;endArrow=classic;rounded=0;strokeColor=default;strokeWidth=2;endSize=4;" parent="bHQWfMzYvvroib5OxHJU-193" vertex="1" connectable="0">
          <mxGeometry x="-0.5229" y="1" relative="1" as="geometry">
            <mxPoint x="337" y="1" as="offset" />
          </mxGeometry>
        </mxCell>
        <mxCell id="bHQWfMzYvvroib5OxHJU-195" value="" style="endArrow=classic;html=1;rounded=0;labelBackgroundColor=default;fontFamily=Times New Roman;fontSize=14;fontColor=default;strokeColor=default;strokeWidth=2;shape=connector;exitX=1.007;exitY=0.098;exitDx=0;exitDy=0;exitPerimeter=0;entryX=0;entryY=0.053;entryDx=0;entryDy=0;entryPerimeter=0;endSize=4;" parent="1" edge="1">
          <mxGeometry width="50" height="50" relative="1" as="geometry">
            <mxPoint x="860" y="469.29" as="sourcePoint" />
            <mxPoint x="1420" y="471.50000000000006" as="targetPoint" />
          </mxGeometry>
        </mxCell>
        <mxCell id="bHQWfMzYvvroib5OxHJU-196" value="&lt;font style=&quot;font-size: 8px;&quot;&gt;MemRdCtrl_EX[2:0]&lt;/font&gt;" style="edgeLabel;html=1;align=center;verticalAlign=middle;resizable=0;points=[];fontSize=14;fontFamily=Times New Roman;fontColor=default;endArrow=classic;rounded=0;strokeColor=default;strokeWidth=2;endSize=4;" parent="bHQWfMzYvvroib5OxHJU-195" vertex="1" connectable="0">
          <mxGeometry x="-0.5229" y="1" relative="1" as="geometry">
            <mxPoint x="-23" as="offset" />
          </mxGeometry>
        </mxCell>
        <mxCell id="bHQWfMzYvvroib5OxHJU-197" value="" style="endArrow=classic;html=1;rounded=0;labelBackgroundColor=default;fontFamily=Times New Roman;fontSize=14;fontColor=default;strokeColor=default;strokeWidth=2;shape=connector;exitX=1.007;exitY=0.098;exitDx=0;exitDy=0;exitPerimeter=0;endSize=4;" parent="1" edge="1">
          <mxGeometry width="50" height="50" relative="1" as="geometry">
            <mxPoint x="1460" y="430" as="sourcePoint" />
            <mxPoint x="1950" y="432" as="targetPoint" />
          </mxGeometry>
        </mxCell>
        <mxCell id="bHQWfMzYvvroib5OxHJU-198" value="&lt;font style=&quot;font-size: 8px;&quot;&gt;RegWrite_EX&lt;/font&gt;" style="edgeLabel;html=1;align=center;verticalAlign=middle;resizable=0;points=[];fontSize=14;fontFamily=Times New Roman;fontColor=default;endArrow=classic;rounded=0;strokeColor=default;strokeWidth=2;endSize=4;" parent="bHQWfMzYvvroib5OxHJU-197" vertex="1" connectable="0">
          <mxGeometry x="-0.5229" y="1" relative="1" as="geometry">
            <mxPoint x="-21" as="offset" />
          </mxGeometry>
        </mxCell>
        <mxCell id="bHQWfMzYvvroib5OxHJU-199" value="" style="endArrow=classic;html=1;rounded=0;labelBackgroundColor=default;fontFamily=Times New Roman;fontSize=14;fontColor=default;strokeColor=default;strokeWidth=2;shape=connector;exitX=1.007;exitY=0.098;exitDx=0;exitDy=0;exitPerimeter=0;endSize=4;" parent="1" edge="1">
          <mxGeometry width="50" height="50" relative="1" as="geometry">
            <mxPoint x="1460" y="440" as="sourcePoint" />
            <mxPoint x="1950" y="440" as="targetPoint" />
          </mxGeometry>
        </mxCell>
        <mxCell id="bHQWfMzYvvroib5OxHJU-200" value="&lt;font style=&quot;font-size: 8px;&quot;&gt;Mem2Reg_EX&lt;/font&gt;" style="edgeLabel;html=1;align=center;verticalAlign=middle;resizable=0;points=[];fontSize=14;fontFamily=Times New Roman;fontColor=default;endArrow=classic;rounded=0;strokeColor=default;strokeWidth=2;endSize=4;" parent="bHQWfMzYvvroib5OxHJU-199" vertex="1" connectable="0">
          <mxGeometry x="-0.5229" y="1" relative="1" as="geometry">
            <mxPoint x="303" y="1" as="offset" />
          </mxGeometry>
        </mxCell>
        <mxCell id="bHQWfMzYvvroib5OxHJU-201" value="" style="endArrow=classic;html=1;rounded=0;labelBackgroundColor=default;fontFamily=Times New Roman;fontSize=14;fontColor=default;strokeColor=#FF8000;strokeWidth=2;shape=connector;exitX=1.007;exitY=0.098;exitDx=0;exitDy=0;exitPerimeter=0;entryX=0.5;entryY=0;entryDx=0;entryDy=0;endSize=4;" parent="1" target="bHQWfMzYvvroib5OxHJU-26" edge="1">
          <mxGeometry width="50" height="50" relative="1" as="geometry">
            <mxPoint x="1460" y="450" as="sourcePoint" />
            <mxPoint x="2020" y="452.21000000000004" as="targetPoint" />
            <Array as="points">
              <mxPoint x="1760" y="450" />
            </Array>
          </mxGeometry>
        </mxCell>
        <mxCell id="bHQWfMzYvvroib5OxHJU-202" value="&lt;font style=&quot;font-size: 8px;&quot;&gt;MemRW_EX&lt;/font&gt;" style="edgeLabel;html=1;align=center;verticalAlign=middle;resizable=0;points=[];fontSize=14;fontFamily=Times New Roman;fontColor=default;endArrow=classic;rounded=0;strokeColor=default;strokeWidth=2;endSize=4;" parent="bHQWfMzYvvroib5OxHJU-201" vertex="1" connectable="0">
          <mxGeometry x="-0.5229" y="1" relative="1" as="geometry">
            <mxPoint x="-23" as="offset" />
          </mxGeometry>
        </mxCell>
        <mxCell id="bHQWfMzYvvroib5OxHJU-203" value="" style="endArrow=classic;html=1;rounded=0;labelBackgroundColor=default;fontFamily=Times New Roman;fontSize=14;fontColor=default;strokeColor=#FF8000;strokeWidth=2;shape=connector;exitX=1.007;exitY=0.098;exitDx=0;exitDy=0;exitPerimeter=0;entryX=0.75;entryY=0;entryDx=0;entryDy=0;endSize=4;" parent="1" target="bHQWfMzYvvroib5OxHJU-26" edge="1">
          <mxGeometry width="50" height="50" relative="1" as="geometry">
            <mxPoint x="1460" y="460" as="sourcePoint" />
            <mxPoint x="2020" y="462.21000000000004" as="targetPoint" />
            <Array as="points">
              <mxPoint x="1800" y="460" />
            </Array>
          </mxGeometry>
        </mxCell>
        <mxCell id="bHQWfMzYvvroib5OxHJU-204" value="&lt;font style=&quot;font-size: 8px;&quot;&gt;MemWrCtrl_EX[1:0]&lt;/font&gt;" style="edgeLabel;html=1;align=center;verticalAlign=middle;resizable=0;points=[];fontSize=14;fontFamily=Times New Roman;fontColor=default;endArrow=classic;rounded=0;strokeColor=default;strokeWidth=2;endSize=4;" parent="bHQWfMzYvvroib5OxHJU-203" vertex="1" connectable="0">
          <mxGeometry x="-0.5229" y="1" relative="1" as="geometry">
            <mxPoint x="231" y="61" as="offset" />
          </mxGeometry>
        </mxCell>
        <mxCell id="bHQWfMzYvvroib5OxHJU-205" value="" style="endArrow=classic;html=1;rounded=0;labelBackgroundColor=default;fontFamily=Times New Roman;fontSize=14;fontColor=default;strokeColor=#FF8000;strokeWidth=2;shape=connector;exitX=1.007;exitY=0.098;exitDx=0;exitDy=0;exitPerimeter=0;entryX=0.25;entryY=0;entryDx=0;entryDy=0;endSize=4;" parent="1" target="bHQWfMzYvvroib5OxHJU-26" edge="1">
          <mxGeometry width="50" height="50" relative="1" as="geometry">
            <mxPoint x="1460" y="471.28999999999996" as="sourcePoint" />
            <mxPoint x="2020" y="473.5" as="targetPoint" />
            <Array as="points">
              <mxPoint x="1720" y="471" />
            </Array>
          </mxGeometry>
        </mxCell>
        <mxCell id="bHQWfMzYvvroib5OxHJU-206" value="&lt;font style=&quot;font-size: 8px;&quot;&gt;MemRdCtrl_EX[2:0]&lt;/font&gt;" style="edgeLabel;html=1;align=center;verticalAlign=middle;resizable=0;points=[];fontSize=14;fontFamily=Times New Roman;fontColor=default;endArrow=classic;rounded=0;strokeColor=default;strokeWidth=2;endSize=4;" parent="bHQWfMzYvvroib5OxHJU-205" vertex="1" connectable="0">
          <mxGeometry x="-0.5229" y="1" relative="1" as="geometry">
            <mxPoint x="-23" as="offset" />
          </mxGeometry>
        </mxCell>
        <mxCell id="bHQWfMzYvvroib5OxHJU-207" value="" style="endArrow=classic;html=1;rounded=0;labelBackgroundColor=default;fontFamily=Times New Roman;fontSize=8;fontColor=default;endSize=1;strokeColor=default;strokeWidth=3;shape=connector;entryX=0;entryY=0.25;entryDx=0;entryDy=0;" parent="1" target="bHQWfMzYvvroib5OxHJU-26" edge="1">
          <mxGeometry width="50" height="50" relative="1" as="geometry">
            <mxPoint x="1460" y="770.07" as="sourcePoint" />
            <mxPoint x="1660" y="770.0000000000001" as="targetPoint" />
            <Array as="points">
              <mxPoint x="1590" y="770" />
              <mxPoint x="1590" y="710" />
            </Array>
          </mxGeometry>
        </mxCell>
        <mxCell id="bHQWfMzYvvroib5OxHJU-208" value="" style="endArrow=classic;html=1;rounded=0;labelBackgroundColor=default;fontFamily=Times New Roman;fontSize=8;fontColor=default;endSize=1;strokeColor=default;strokeWidth=3;shape=connector;entryX=0;entryY=0.25;entryDx=0;entryDy=0;" parent="1" edge="1">
          <mxGeometry width="50" height="50" relative="1" as="geometry">
            <mxPoint x="1460" y="880.0000000000002" as="sourcePoint" />
            <mxPoint x="1680" y="819.9300000000001" as="targetPoint" />
            <Array as="points">
              <mxPoint x="1590" y="879.9300000000001" />
              <mxPoint x="1590" y="819.9300000000001" />
            </Array>
          </mxGeometry>
        </mxCell>
        <mxCell id="bHQWfMzYvvroib5OxHJU-209" value="" style="endArrow=classic;html=1;rounded=0;labelBackgroundColor=default;fontFamily=Times New Roman;fontSize=8;fontColor=default;endSize=1;strokeColor=default;strokeWidth=3;shape=connector;exitX=0.972;exitY=0.877;exitDx=0;exitDy=0;exitPerimeter=0;" parent="1" edge="1">
          <mxGeometry width="50" height="50" relative="1" as="geometry">
            <mxPoint x="1460" y="900.9999999999999" as="sourcePoint" />
            <mxPoint x="1950" y="903" as="targetPoint" />
          </mxGeometry>
        </mxCell>
        <mxCell id="bHQWfMzYvvroib5OxHJU-211" value="" style="endArrow=classic;html=1;rounded=0;labelBackgroundColor=default;fontFamily=Times New Roman;fontSize=8;fontColor=default;endSize=1;strokeColor=#000000;strokeWidth=3;shape=connector;exitX=1;exitY=0.5;exitDx=0;exitDy=0;" parent="1" source="bHQWfMzYvvroib5OxHJU-26" edge="1">
          <mxGeometry width="50" height="50" relative="1" as="geometry">
            <mxPoint x="1600" y="680" as="sourcePoint" />
            <mxPoint x="1950" y="760" as="targetPoint" />
          </mxGeometry>
        </mxCell>
        <mxCell id="bHQWfMzYvvroib5OxHJU-212" value="" style="endArrow=classic;html=1;rounded=0;labelBackgroundColor=default;fontFamily=Times New Roman;fontSize=8;fontColor=default;endSize=1;strokeColor=#000000;strokeWidth=3;shape=connector;" parent="1" edge="1">
          <mxGeometry width="50" height="50" relative="1" as="geometry">
            <mxPoint x="1590" y="710" as="sourcePoint" />
            <mxPoint x="1950" y="624" as="targetPoint" />
            <Array as="points">
              <mxPoint x="1590" y="624" />
            </Array>
          </mxGeometry>
        </mxCell>
        <mxCell id="bHQWfMzYvvroib5OxHJU-213" value="" style="group;fontFamily=Times New Roman;" parent="1" vertex="1" connectable="0">
          <mxGeometry x="2101" y="699" width="40" height="80" as="geometry" />
        </mxCell>
        <mxCell id="bHQWfMzYvvroib5OxHJU-214" value="" style="endArrow=none;html=1;rounded=0;labelBackgroundColor=default;fontFamily=Times New Roman;fontSize=14;fontColor=default;strokeColor=default;strokeWidth=3;shape=connector;" parent="bHQWfMzYvvroib5OxHJU-213" edge="1">
          <mxGeometry width="50" height="50" relative="1" as="geometry">
            <mxPoint y="60" as="sourcePoint" />
            <mxPoint y="20" as="targetPoint" />
          </mxGeometry>
        </mxCell>
        <mxCell id="bHQWfMzYvvroib5OxHJU-215" value="" style="endArrow=none;html=1;rounded=0;labelBackgroundColor=default;fontFamily=Times New Roman;fontSize=14;fontColor=default;strokeColor=default;strokeWidth=3;shape=connector;" parent="bHQWfMzYvvroib5OxHJU-213" edge="1">
          <mxGeometry width="50" height="50" relative="1" as="geometry">
            <mxPoint x="40" y="60" as="sourcePoint" />
            <mxPoint x="40" y="20" as="targetPoint" />
          </mxGeometry>
        </mxCell>
        <mxCell id="bHQWfMzYvvroib5OxHJU-216" value="" style="endArrow=none;html=1;labelBackgroundColor=default;fontFamily=Times New Roman;fontSize=14;fontColor=default;strokeColor=default;strokeWidth=3;shape=connector;curved=1;" parent="bHQWfMzYvvroib5OxHJU-213" edge="1">
          <mxGeometry width="50" height="50" relative="1" as="geometry">
            <mxPoint y="20" as="sourcePoint" />
            <mxPoint x="40" y="20" as="targetPoint" />
            <Array as="points">
              <mxPoint />
              <mxPoint x="40" />
            </Array>
          </mxGeometry>
        </mxCell>
        <mxCell id="bHQWfMzYvvroib5OxHJU-217" value="" style="endArrow=none;html=1;labelBackgroundColor=default;fontFamily=Times New Roman;fontSize=14;fontColor=default;strokeColor=default;strokeWidth=3;shape=connector;curved=1;" parent="bHQWfMzYvvroib5OxHJU-213" edge="1">
          <mxGeometry width="50" height="50" relative="1" as="geometry">
            <mxPoint x="40" y="60" as="sourcePoint" />
            <mxPoint y="60" as="targetPoint" />
            <Array as="points">
              <mxPoint x="40" y="80" />
              <mxPoint y="80" />
            </Array>
          </mxGeometry>
        </mxCell>
        <mxCell id="bHQWfMzYvvroib5OxHJU-218" value="" style="endArrow=classic;html=1;rounded=0;labelBackgroundColor=default;fontFamily=Times New Roman;fontSize=8;fontColor=default;endSize=1;strokeColor=#000000;strokeWidth=3;shape=connector;exitX=1;exitY=0.5;exitDx=0;exitDy=0;" parent="1" edge="1">
          <mxGeometry width="50" height="50" relative="1" as="geometry">
            <mxPoint x="1990" y="759.5" as="sourcePoint" />
            <mxPoint x="2100" y="759.5" as="targetPoint" />
          </mxGeometry>
        </mxCell>
        <mxCell id="bHQWfMzYvvroib5OxHJU-251" value="MemData&lt;br&gt;_WB" style="edgeLabel;html=1;align=center;verticalAlign=middle;resizable=0;points=[];fontSize=18;fontFamily=Times New Roman;fontColor=default;" parent="bHQWfMzYvvroib5OxHJU-218" vertex="1" connectable="0">
          <mxGeometry x="0.1301" y="4" relative="1" as="geometry">
            <mxPoint x="-13" as="offset" />
          </mxGeometry>
        </mxCell>
        <mxCell id="bHQWfMzYvvroib5OxHJU-219" value="" style="endArrow=classic;html=1;rounded=0;labelBackgroundColor=default;fontFamily=Times New Roman;fontSize=8;fontColor=default;endSize=1;strokeColor=#000000;strokeWidth=3;shape=connector;exitX=1;exitY=0.5;exitDx=0;exitDy=0;" parent="1" edge="1">
          <mxGeometry width="50" height="50" relative="1" as="geometry">
            <mxPoint x="1991" y="624" as="sourcePoint" />
            <mxPoint x="2101" y="720" as="targetPoint" />
            <Array as="points">
              <mxPoint x="2040" y="624" />
              <mxPoint x="2040" y="720" />
            </Array>
          </mxGeometry>
        </mxCell>
        <mxCell id="bHQWfMzYvvroib5OxHJU-250" value="ALURes_WB" style="edgeLabel;html=1;align=center;verticalAlign=middle;resizable=0;points=[];fontSize=18;fontFamily=Times New Roman;fontColor=default;" parent="bHQWfMzYvvroib5OxHJU-219" vertex="1" connectable="0">
          <mxGeometry x="-0.2185" y="-3" relative="1" as="geometry">
            <mxPoint x="13" as="offset" />
          </mxGeometry>
        </mxCell>
        <mxCell id="bHQWfMzYvvroib5OxHJU-220" value="" style="endArrow=classic;html=1;rounded=0;labelBackgroundColor=default;fontFamily=Times New Roman;fontSize=14;fontColor=default;strokeColor=#FF8000;strokeWidth=2;shape=connector;exitX=1.007;exitY=0.098;exitDx=0;exitDy=0;exitPerimeter=0;endSize=4;" parent="1" edge="1">
          <mxGeometry width="50" height="50" relative="1" as="geometry">
            <mxPoint x="1990" y="440" as="sourcePoint" />
            <mxPoint x="2120" y="700" as="targetPoint" />
            <Array as="points">
              <mxPoint x="2120" y="440" />
            </Array>
          </mxGeometry>
        </mxCell>
        <mxCell id="bHQWfMzYvvroib5OxHJU-221" value="&lt;font style=&quot;font-size: 8px;&quot;&gt;Mem2Reg_WB&lt;/font&gt;" style="edgeLabel;html=1;align=center;verticalAlign=middle;resizable=0;points=[];fontSize=14;fontFamily=Times New Roman;fontColor=default;endArrow=classic;rounded=0;strokeColor=default;strokeWidth=2;endSize=4;" parent="bHQWfMzYvvroib5OxHJU-220" vertex="1" connectable="0">
          <mxGeometry x="-0.5229" y="1" relative="1" as="geometry">
            <mxPoint x="38" y="71" as="offset" />
          </mxGeometry>
        </mxCell>
        <mxCell id="bHQWfMzYvvroib5OxHJU-223" value="" style="endArrow=classic;html=1;rounded=0;labelBackgroundColor=default;fontFamily=Times New Roman;fontSize=14;fontColor=default;strokeColor=#FF8000;strokeWidth=2;shape=connector;exitX=1.007;exitY=0.098;exitDx=0;exitDy=0;exitPerimeter=0;endSize=4;entryX=0.5;entryY=0;entryDx=0;entryDy=0;" parent="1" target="bHQWfMzYvvroib5OxHJU-5" edge="1">
          <mxGeometry width="50" height="50" relative="1" as="geometry">
            <mxPoint x="1990" y="430" as="sourcePoint" />
            <mxPoint x="600" y="380" as="targetPoint" />
            <Array as="points">
              <mxPoint x="2080" y="430" />
              <mxPoint x="2080" y="370" />
              <mxPoint x="560" y="370" />
            </Array>
          </mxGeometry>
        </mxCell>
        <mxCell id="bHQWfMzYvvroib5OxHJU-224" value="&lt;font style=&quot;font-size: 8px;&quot;&gt;RegWrite_EX&lt;/font&gt;" style="edgeLabel;html=1;align=center;verticalAlign=middle;resizable=0;points=[];fontSize=14;fontFamily=Times New Roman;fontColor=default;endArrow=classic;rounded=0;strokeColor=default;strokeWidth=2;endSize=4;" parent="bHQWfMzYvvroib5OxHJU-223" vertex="1" connectable="0">
          <mxGeometry x="-0.5229" y="1" relative="1" as="geometry">
            <mxPoint x="-21" as="offset" />
          </mxGeometry>
        </mxCell>
        <mxCell id="bHQWfMzYvvroib5OxHJU-232" value="" style="group;fontFamily=Times New Roman;" parent="1" vertex="1" connectable="0">
          <mxGeometry x="340" y="420" width="60" height="100" as="geometry" />
        </mxCell>
        <mxCell id="bHQWfMzYvvroib5OxHJU-227" value="" style="endArrow=none;html=1;rounded=0;strokeWidth=3;fontSize=14;fontFamily=Times New Roman;" parent="bHQWfMzYvvroib5OxHJU-232" edge="1">
          <mxGeometry width="50" height="50" relative="1" as="geometry">
            <mxPoint as="sourcePoint" />
            <mxPoint x="60" y="30" as="targetPoint" />
          </mxGeometry>
        </mxCell>
        <mxCell id="bHQWfMzYvvroib5OxHJU-228" value="" style="endArrow=none;html=1;rounded=0;strokeWidth=3;fontSize=14;fontFamily=Times New Roman;" parent="bHQWfMzYvvroib5OxHJU-232" edge="1">
          <mxGeometry width="50" height="50" relative="1" as="geometry">
            <mxPoint x="60" y="30" as="sourcePoint" />
            <mxPoint x="60" y="70" as="targetPoint" />
          </mxGeometry>
        </mxCell>
        <mxCell id="bHQWfMzYvvroib5OxHJU-229" value="" style="endArrow=none;html=1;rounded=0;strokeWidth=3;fontSize=14;fontFamily=Times New Roman;" parent="bHQWfMzYvvroib5OxHJU-232" edge="1">
          <mxGeometry width="50" height="50" relative="1" as="geometry">
            <mxPoint x="60" y="70" as="sourcePoint" />
            <mxPoint y="100" as="targetPoint" />
          </mxGeometry>
        </mxCell>
        <mxCell id="bHQWfMzYvvroib5OxHJU-230" value="" style="endArrow=none;html=1;rounded=0;strokeWidth=3;fontSize=14;fontFamily=Times New Roman;" parent="bHQWfMzYvvroib5OxHJU-232" edge="1">
          <mxGeometry width="50" height="50" relative="1" as="geometry">
            <mxPoint as="sourcePoint" />
            <mxPoint y="100" as="targetPoint" />
            <Array as="points">
              <mxPoint y="40" />
              <mxPoint x="10" y="50" />
              <mxPoint y="60" />
            </Array>
          </mxGeometry>
        </mxCell>
        <mxCell id="bHQWfMzYvvroib5OxHJU-231" value="Add" style="text;html=1;align=center;verticalAlign=middle;resizable=0;points=[];autosize=1;strokeColor=none;fillColor=none;fontSize=14;fontFamily=Times New Roman;fontColor=default;" parent="bHQWfMzYvvroib5OxHJU-232" vertex="1">
          <mxGeometry x="10" y="40" width="40" height="20" as="geometry" />
        </mxCell>
        <mxCell id="bHQWfMzYvvroib5OxHJU-234" value="" style="endArrow=classic;html=1;rounded=0;labelBackgroundColor=default;fontFamily=Times New Roman;fontSize=8;fontColor=default;endSize=1;strokeColor=#000000;strokeWidth=3;shape=connector;exitX=0.98;exitY=0.159;exitDx=0;exitDy=0;exitPerimeter=0;" parent="1" source="bHQWfMzYvvroib5OxHJU-1" edge="1">
          <mxGeometry width="50" height="50" relative="1" as="geometry">
            <mxPoint x="530" y="600" as="sourcePoint" />
            <mxPoint x="340" y="440" as="targetPoint" />
            <Array as="points">
              <mxPoint x="280" y="480" />
              <mxPoint x="280" y="440" />
            </Array>
          </mxGeometry>
        </mxCell>
        <mxCell id="bHQWfMzYvvroib5OxHJU-235" value="" style="endArrow=classic;html=1;rounded=0;labelBackgroundColor=default;fontFamily=Times New Roman;fontSize=8;fontColor=default;endSize=1;strokeColor=#000000;strokeWidth=3;shape=connector;" parent="1" edge="1">
          <mxGeometry width="50" height="50" relative="1" as="geometry">
            <mxPoint x="400" y="470" as="sourcePoint" />
            <mxPoint x="-160" y="500" as="targetPoint" />
            <Array as="points">
              <mxPoint x="420" y="470" />
              <mxPoint x="420" y="370" />
              <mxPoint x="-210" y="370" />
              <mxPoint x="-210" y="500" />
            </Array>
          </mxGeometry>
        </mxCell>
        <mxCell id="bHQWfMzYvvroib5OxHJU-242" value="JumpPC" style="edgeLabel;html=1;align=center;verticalAlign=middle;resizable=0;points=[];fontSize=8;fontFamily=Times New Roman;fontColor=default;" parent="bHQWfMzYvvroib5OxHJU-235" vertex="1" connectable="0">
          <mxGeometry x="0.1821" y="-5" relative="1" as="geometry">
            <mxPoint x="-1" as="offset" />
          </mxGeometry>
        </mxCell>
        <mxCell id="bHQWfMzYvvroib5OxHJU-237" value="" style="endArrow=classic;html=1;rounded=0;labelBackgroundColor=default;fontFamily=Times New Roman;fontSize=8;fontColor=default;endSize=1;strokeColor=#000000;strokeWidth=2;shape=connector;exitX=1;exitY=0.5;exitDx=0;exitDy=0;entryX=0.175;entryY=0.75;entryDx=0;entryDy=0;entryPerimeter=0;" parent="1" source="bHQWfMzYvvroib5OxHJU-89" target="bHQWfMzYvvroib5OxHJU-238" edge="1">
          <mxGeometry width="50" height="50" relative="1" as="geometry">
            <mxPoint x="560" y="470" as="sourcePoint" />
            <mxPoint x="450" y="327.5" as="targetPoint" />
            <Array as="points">
              <mxPoint x="770" y="610" />
              <mxPoint x="770" y="330" />
            </Array>
          </mxGeometry>
        </mxCell>
        <mxCell id="bHQWfMzYvvroib5OxHJU-241" style="edgeStyle=orthogonalEdgeStyle;shape=connector;rounded=0;orthogonalLoop=1;jettySize=auto;html=1;exitX=1;exitY=0.5;exitDx=0;exitDy=0;exitPerimeter=0;labelBackgroundColor=default;fontFamily=Times New Roman;fontSize=8;fontColor=default;endArrow=classic;endSize=1;strokeColor=#FF8000;strokeWidth=2;" parent="1" source="bHQWfMzYvvroib5OxHJU-238" edge="1">
          <mxGeometry relative="1" as="geometry">
            <mxPoint x="-140" y="425" as="targetPoint" />
            <mxPoint x="410" y="310" as="sourcePoint" />
            <Array as="points">
              <mxPoint x="-140" y="315" />
            </Array>
          </mxGeometry>
        </mxCell>
        <mxCell id="bHQWfMzYvvroib5OxHJU-238" value="" style="shape=xor;whiteSpace=wrap;html=1;rounded=0;labelBackgroundColor=default;fontFamily=Times New Roman;fontSize=8;fontColor=default;endArrow=classic;endSize=4;strokeColor=default;strokeWidth=2;fillColor=none;gradientColor=none;flipH=1;" parent="1" vertex="1">
          <mxGeometry x="410" y="300" width="50" height="40" as="geometry" />
        </mxCell>
        <mxCell id="bHQWfMzYvvroib5OxHJU-239" value="" style="endArrow=classic;html=1;rounded=0;labelBackgroundColor=default;fontFamily=Times New Roman;fontSize=8;fontColor=default;endSize=1;strokeColor=#000000;strokeWidth=2;shape=connector;entryX=0.25;entryY=0.5;entryDx=0;entryDy=0;entryPerimeter=0;" parent="1" target="bHQWfMzYvvroib5OxHJU-238" edge="1">
          <mxGeometry width="50" height="50" relative="1" as="geometry">
            <mxPoint x="690" y="530" as="sourcePoint" />
            <mxPoint x="690" y="310" as="targetPoint" />
            <Array as="points">
              <mxPoint x="690" y="320" />
            </Array>
          </mxGeometry>
        </mxCell>
        <mxCell id="bHQWfMzYvvroib5OxHJU-240" value="" style="endArrow=classic;html=1;rounded=0;labelBackgroundColor=default;fontFamily=Times New Roman;fontSize=8;fontColor=default;endSize=1;strokeColor=#000000;strokeWidth=2;shape=connector;" parent="1" edge="1">
          <mxGeometry width="50" height="50" relative="1" as="geometry">
            <mxPoint x="710" y="520" as="sourcePoint" />
            <mxPoint x="450" y="310" as="targetPoint" />
            <Array as="points">
              <mxPoint x="710" y="310" />
            </Array>
          </mxGeometry>
        </mxCell>
        <mxCell id="bHQWfMzYvvroib5OxHJU-243" value="&lt;font style=&quot;font-size: 18px;&quot;&gt;ALU&lt;/font&gt;" style="text;html=1;align=center;verticalAlign=middle;resizable=0;points=[];autosize=1;strokeColor=none;fillColor=none;fontSize=8;fontFamily=Times New Roman;fontColor=default;" parent="1" vertex="1">
          <mxGeometry x="1155" y="760" width="50" height="20" as="geometry" />
        </mxCell>
        <mxCell id="bHQWfMzYvvroib5OxHJU-244" value="" style="endArrow=classic;html=1;rounded=0;labelBackgroundColor=default;fontFamily=Times New Roman;fontSize=18;fontColor=default;endSize=1;strokeColor=default;strokeWidth=3;shape=connector;" parent="1" edge="1">
          <mxGeometry width="50" height="50" relative="1" as="geometry">
            <mxPoint x="560" y="963" as="sourcePoint" />
            <mxPoint x="340" y="500" as="targetPoint" />
            <Array as="points">
              <mxPoint x="560" y="923" />
              <mxPoint x="330" y="923" />
              <mxPoint x="330" y="603" />
              <mxPoint x="300" y="603" />
              <mxPoint x="300" y="500" />
            </Array>
          </mxGeometry>
        </mxCell>
        <mxCell id="bHQWfMzYvvroib5OxHJU-245" value="" style="endArrow=classic;html=1;rounded=0;labelBackgroundColor=default;fontFamily=Times New Roman;fontSize=18;fontColor=default;endSize=1;strokeColor=#000000;strokeWidth=3;shape=connector;" parent="1" edge="1">
          <mxGeometry width="50" height="50" relative="1" as="geometry">
            <mxPoint x="280" y="480" as="sourcePoint" />
            <mxPoint x="820" y="660" as="targetPoint" />
            <Array as="points">
              <mxPoint x="280" y="660" />
            </Array>
          </mxGeometry>
        </mxCell>
        <mxCell id="bHQWfMzYvvroib5OxHJU-246" value="" style="endArrow=classic;html=1;rounded=0;labelBackgroundColor=default;fontFamily=Times New Roman;fontSize=18;fontColor=default;endSize=1;strokeColor=default;strokeWidth=3;shape=connector;exitX=1.005;exitY=0.458;exitDx=0;exitDy=0;exitPerimeter=0;" parent="1" source="bHQWfMzYvvroib5OxHJU-4" edge="1">
          <mxGeometry width="50" height="50" relative="1" as="geometry">
            <mxPoint x="720" y="770" as="sourcePoint" />
            <mxPoint x="990" y="740" as="targetPoint" />
            <Array as="points">
              <mxPoint x="930" y="661" />
              <mxPoint x="930" y="740" />
            </Array>
          </mxGeometry>
        </mxCell>
        <mxCell id="bHQWfMzYvvroib5OxHJU-249" value="Forwarding" style="rounded=1;whiteSpace=wrap;html=1;strokeWidth=3;fillColor=#f8cecc;strokeColor=#b85450;fontSize=14;fontFamily=Times New Roman;" parent="1" vertex="1">
          <mxGeometry x="1190" y="930" width="120" height="80" as="geometry" />
        </mxCell>
      </root>
    </mxGraphModel>
  </diagram>
  <diagram id="BzPDIUYWc4rihSVEmQxT" name="Cache">
    <mxGraphModel dx="2063" dy="1051" grid="1" gridSize="10" guides="1" tooltips="1" connect="1" arrows="1" fold="1" page="1" pageScale="1" pageWidth="1920" pageHeight="1200" math="0" shadow="0">
      <root>
        <mxCell id="0" />
        <mxCell id="1" parent="0" />
        <mxCell id="XqLhm2rlqJO6shbvyF-C-1" value="" style="rounded=1;whiteSpace=wrap;html=1;strokeWidth=3;" parent="1" vertex="1">
          <mxGeometry x="170" y="320" width="720" height="50" as="geometry" />
        </mxCell>
        <mxCell id="XqLhm2rlqJO6shbvyF-C-2" value="" style="endArrow=none;html=1;rounded=0;exitX=0.875;exitY=1;exitDx=0;exitDy=0;exitPerimeter=0;entryX=0.874;entryY=0.009;entryDx=0;entryDy=0;entryPerimeter=0;strokeWidth=2;" parent="1" source="XqLhm2rlqJO6shbvyF-C-1" target="XqLhm2rlqJO6shbvyF-C-1" edge="1">
          <mxGeometry width="50" height="50" relative="1" as="geometry">
            <mxPoint x="680" y="370" as="sourcePoint" />
            <mxPoint x="730" y="320" as="targetPoint" />
          </mxGeometry>
        </mxCell>
        <mxCell id="XqLhm2rlqJO6shbvyF-C-4" value="" style="endArrow=none;html=1;rounded=0;exitX=0.875;exitY=1;exitDx=0;exitDy=0;exitPerimeter=0;entryX=0.874;entryY=0.009;entryDx=0;entryDy=0;entryPerimeter=0;strokeWidth=2;" parent="1" edge="1">
          <mxGeometry width="50" height="50" relative="1" as="geometry">
            <mxPoint x="680.72" y="370" as="sourcePoint" />
            <mxPoint x="679.9999999999998" y="320.45000000000005" as="targetPoint" />
          </mxGeometry>
        </mxCell>
        <mxCell id="XqLhm2rlqJO6shbvyF-C-5" value="0" style="text;html=1;align=center;verticalAlign=middle;resizable=0;points=[];autosize=1;strokeColor=none;fillColor=none;fontFamily=Times New Roman;fontSize=20;" parent="1" vertex="1">
          <mxGeometry x="865" y="285" width="30" height="30" as="geometry" />
        </mxCell>
        <mxCell id="XqLhm2rlqJO6shbvyF-C-6" value="3" style="text;html=1;align=center;verticalAlign=middle;resizable=0;points=[];autosize=1;strokeColor=none;fillColor=none;fontFamily=Times New Roman;fontSize=20;" parent="1" vertex="1">
          <mxGeometry x="793" y="285" width="30" height="30" as="geometry" />
        </mxCell>
        <mxCell id="XqLhm2rlqJO6shbvyF-C-7" value="4" style="text;html=1;align=center;verticalAlign=middle;resizable=0;points=[];autosize=1;strokeColor=none;fillColor=none;fontFamily=Times New Roman;fontSize=20;" parent="1" vertex="1">
          <mxGeometry x="776" y="285" width="30" height="30" as="geometry" />
        </mxCell>
        <mxCell id="XqLhm2rlqJO6shbvyF-C-8" value="8" style="text;html=1;align=center;verticalAlign=middle;resizable=0;points=[];autosize=1;strokeColor=none;fillColor=none;fontFamily=Times New Roman;fontSize=20;" parent="1" vertex="1">
          <mxGeometry x="672" y="285" width="30" height="30" as="geometry" />
        </mxCell>
        <mxCell id="XqLhm2rlqJO6shbvyF-C-9" value="9" style="text;html=1;align=center;verticalAlign=middle;resizable=0;points=[];autosize=1;strokeColor=none;fillColor=none;fontFamily=Times New Roman;fontSize=20;" parent="1" vertex="1">
          <mxGeometry x="656" y="285" width="30" height="30" as="geometry" />
        </mxCell>
        <mxCell id="XqLhm2rlqJO6shbvyF-C-10" value="31" style="text;html=1;align=center;verticalAlign=middle;resizable=0;points=[];autosize=1;strokeColor=none;fillColor=none;fontFamily=Times New Roman;fontSize=20;" parent="1" vertex="1">
          <mxGeometry x="165" y="285" width="40" height="30" as="geometry" />
        </mxCell>
        <mxCell id="XqLhm2rlqJO6shbvyF-C-11" value="Offset" style="text;html=1;align=center;verticalAlign=middle;resizable=0;points=[];autosize=1;strokeColor=none;fillColor=none;fontSize=20;fontFamily=Times New Roman;" parent="1" vertex="1">
          <mxGeometry x="806" y="330" width="70" height="30" as="geometry" />
        </mxCell>
        <mxCell id="XqLhm2rlqJO6shbvyF-C-12" value="Index" style="text;html=1;align=center;verticalAlign=middle;resizable=0;points=[];autosize=1;strokeColor=none;fillColor=none;fontSize=20;fontFamily=Times New Roman;" parent="1" vertex="1">
          <mxGeometry x="707" y="330" width="60" height="30" as="geometry" />
        </mxCell>
        <mxCell id="XqLhm2rlqJO6shbvyF-C-13" value="Tag" style="text;html=1;align=center;verticalAlign=middle;resizable=0;points=[];autosize=1;strokeColor=none;fillColor=none;fontSize=20;fontFamily=Times New Roman;" parent="1" vertex="1">
          <mxGeometry x="405" y="330" width="50" height="30" as="geometry" />
        </mxCell>
        <mxCell id="lB71pB90fBSXB2FcQGe6-4" style="edgeStyle=orthogonalEdgeStyle;orthogonalLoop=1;jettySize=auto;html=1;exitX=1;exitY=0;exitDx=0;exitDy=0;entryX=0;entryY=0;entryDx=0;entryDy=0;fontFamily=Times New Roman;fontSize=16;fontColor=default;curved=1;" parent="1" source="lB71pB90fBSXB2FcQGe6-1" target="lB71pB90fBSXB2FcQGe6-2" edge="1">
          <mxGeometry relative="1" as="geometry">
            <Array as="points">
              <mxPoint x="318" y="650" />
              <mxPoint x="492" y="650" />
            </Array>
          </mxGeometry>
        </mxCell>
        <mxCell id="lB71pB90fBSXB2FcQGe6-1" value="IDLE" style="ellipse;whiteSpace=wrap;html=1;aspect=fixed;fontFamily=Times New Roman;fontSize=16;strokeWidth=3;" parent="1" vertex="1">
          <mxGeometry x="250" y="670" width="80" height="80" as="geometry" />
        </mxCell>
        <mxCell id="lB71pB90fBSXB2FcQGe6-6" style="edgeStyle=orthogonalEdgeStyle;curved=1;orthogonalLoop=1;jettySize=auto;html=1;exitX=0;exitY=1;exitDx=0;exitDy=0;entryX=1;entryY=1;entryDx=0;entryDy=0;fontFamily=Times New Roman;fontSize=16;fontColor=default;" parent="1" source="lB71pB90fBSXB2FcQGe6-2" target="lB71pB90fBSXB2FcQGe6-1" edge="1">
          <mxGeometry relative="1" as="geometry">
            <Array as="points">
              <mxPoint x="492" y="760" />
              <mxPoint x="318" y="760" />
            </Array>
          </mxGeometry>
        </mxCell>
        <mxCell id="lB71pB90fBSXB2FcQGe6-8" style="edgeStyle=orthogonalEdgeStyle;curved=1;orthogonalLoop=1;jettySize=auto;html=1;exitX=1;exitY=0;exitDx=0;exitDy=0;fontFamily=Times New Roman;fontSize=16;fontColor=default;" parent="1" source="lB71pB90fBSXB2FcQGe6-2" target="lB71pB90fBSXB2FcQGe6-3" edge="1">
          <mxGeometry relative="1" as="geometry" />
        </mxCell>
        <mxCell id="lB71pB90fBSXB2FcQGe6-14" style="edgeStyle=orthogonalEdgeStyle;curved=1;orthogonalLoop=1;jettySize=auto;html=1;exitX=1;exitY=1;exitDx=0;exitDy=0;entryX=0;entryY=0;entryDx=0;entryDy=0;fontFamily=Times New Roman;fontSize=16;fontColor=default;" parent="1" source="lB71pB90fBSXB2FcQGe6-2" target="lB71pB90fBSXB2FcQGe6-12" edge="1">
          <mxGeometry relative="1" as="geometry" />
        </mxCell>
        <mxCell id="lB71pB90fBSXB2FcQGe6-2" value="LOOKUP" style="ellipse;whiteSpace=wrap;html=1;aspect=fixed;fontFamily=Times New Roman;fontSize=16;strokeWidth=3;" parent="1" vertex="1">
          <mxGeometry x="480" y="670" width="80" height="80" as="geometry" />
        </mxCell>
        <mxCell id="lB71pB90fBSXB2FcQGe6-10" style="edgeStyle=orthogonalEdgeStyle;curved=1;orthogonalLoop=1;jettySize=auto;html=1;exitX=1;exitY=0;exitDx=0;exitDy=0;entryX=0;entryY=0;entryDx=0;entryDy=0;fontFamily=Times New Roman;fontSize=16;fontColor=default;" parent="1" source="lB71pB90fBSXB2FcQGe6-3" target="lB71pB90fBSXB2FcQGe6-1" edge="1">
          <mxGeometry relative="1" as="geometry">
            <Array as="points">
              <mxPoint x="738" y="520" />
              <mxPoint x="262" y="520" />
            </Array>
          </mxGeometry>
        </mxCell>
        <mxCell id="lB71pB90fBSXB2FcQGe6-3" value="HITWRITE" style="ellipse;whiteSpace=wrap;html=1;aspect=fixed;fontFamily=Times New Roman;fontSize=16;strokeWidth=3;" parent="1" vertex="1">
          <mxGeometry x="670" y="590" width="80" height="80" as="geometry" />
        </mxCell>
        <mxCell id="lB71pB90fBSXB2FcQGe6-5" value="read_req || write_req" style="text;html=1;align=center;verticalAlign=middle;resizable=0;points=[];autosize=1;strokeColor=none;fillColor=none;fontSize=16;fontFamily=Times New Roman;fontColor=default;" parent="1" vertex="1">
          <mxGeometry x="330" y="620" width="150" height="20" as="geometry" />
        </mxCell>
        <mxCell id="lB71pB90fBSXB2FcQGe6-7" value="read_hit" style="text;html=1;align=center;verticalAlign=middle;resizable=0;points=[];autosize=1;strokeColor=none;fillColor=none;fontSize=16;fontFamily=Times New Roman;fontColor=default;" parent="1" vertex="1">
          <mxGeometry x="370" y="760" width="70" height="20" as="geometry" />
        </mxCell>
        <mxCell id="lB71pB90fBSXB2FcQGe6-9" value="write_hit" style="text;html=1;align=center;verticalAlign=middle;resizable=0;points=[];autosize=1;strokeColor=none;fillColor=none;fontSize=16;fontFamily=Times New Roman;fontColor=default;" parent="1" vertex="1">
          <mxGeometry x="565" y="600" width="70" height="20" as="geometry" />
        </mxCell>
        <mxCell id="lB71pB90fBSXB2FcQGe6-11" value="write finish" style="text;html=1;align=center;verticalAlign=middle;resizable=0;points=[];autosize=1;strokeColor=none;fillColor=none;fontSize=16;fontFamily=Times New Roman;fontColor=default;" parent="1" vertex="1">
          <mxGeometry x="430" y="490" width="90" height="20" as="geometry" />
        </mxCell>
        <mxCell id="lB71pB90fBSXB2FcQGe6-21" style="edgeStyle=orthogonalEdgeStyle;curved=1;orthogonalLoop=1;jettySize=auto;html=1;exitX=1;exitY=0.5;exitDx=0;exitDy=0;fontFamily=Times New Roman;fontSize=16;fontColor=default;" parent="1" source="lB71pB90fBSXB2FcQGe6-12" target="lB71pB90fBSXB2FcQGe6-15" edge="1">
          <mxGeometry relative="1" as="geometry" />
        </mxCell>
        <mxCell id="lB71pB90fBSXB2FcQGe6-12" value="WB1" style="ellipse;whiteSpace=wrap;html=1;aspect=fixed;fontFamily=Times New Roman;fontSize=16;strokeWidth=3;" parent="1" vertex="1">
          <mxGeometry x="670" y="770" width="80" height="80" as="geometry" />
        </mxCell>
        <mxCell id="lB71pB90fBSXB2FcQGe6-18" style="edgeStyle=orthogonalEdgeStyle;curved=1;orthogonalLoop=1;jettySize=auto;html=1;exitX=1;exitY=0.5;exitDx=0;exitDy=0;fontFamily=Times New Roman;fontSize=16;fontColor=default;" parent="1" source="lB71pB90fBSXB2FcQGe6-13" target="lB71pB90fBSXB2FcQGe6-16" edge="1">
          <mxGeometry relative="1" as="geometry" />
        </mxCell>
        <mxCell id="lB71pB90fBSXB2FcQGe6-13" value="REFILL1" style="ellipse;whiteSpace=wrap;html=1;aspect=fixed;fontFamily=Times New Roman;fontSize=16;strokeWidth=3;" parent="1" vertex="1">
          <mxGeometry x="672" y="990" width="70" height="70" as="geometry" />
        </mxCell>
        <mxCell id="lB71pB90fBSXB2FcQGe6-22" style="edgeStyle=orthogonalEdgeStyle;curved=1;orthogonalLoop=1;jettySize=auto;html=1;exitX=1;exitY=0.5;exitDx=0;exitDy=0;fontFamily=Times New Roman;fontSize=16;fontColor=default;" parent="1" source="lB71pB90fBSXB2FcQGe6-15" target="lB71pB90fBSXB2FcQGe6-13" edge="1">
          <mxGeometry relative="1" as="geometry" />
        </mxCell>
        <mxCell id="lB71pB90fBSXB2FcQGe6-15" value="WB2" style="ellipse;whiteSpace=wrap;html=1;aspect=fixed;fontFamily=Times New Roman;fontSize=16;strokeWidth=3;" parent="1" vertex="1">
          <mxGeometry x="850" y="770" width="80" height="80" as="geometry" />
        </mxCell>
        <mxCell id="lB71pB90fBSXB2FcQGe6-19" style="edgeStyle=orthogonalEdgeStyle;curved=1;orthogonalLoop=1;jettySize=auto;html=1;exitX=1;exitY=0.5;exitDx=0;exitDy=0;entryX=0;entryY=0.5;entryDx=0;entryDy=0;fontFamily=Times New Roman;fontSize=16;fontColor=default;" parent="1" source="lB71pB90fBSXB2FcQGe6-16" target="lB71pB90fBSXB2FcQGe6-17" edge="1">
          <mxGeometry relative="1" as="geometry" />
        </mxCell>
        <mxCell id="lB71pB90fBSXB2FcQGe6-16" value="REFILL2" style="ellipse;whiteSpace=wrap;html=1;aspect=fixed;fontFamily=Times New Roman;fontSize=16;strokeWidth=3;" parent="1" vertex="1">
          <mxGeometry x="850" y="990" width="70" height="70" as="geometry" />
        </mxCell>
        <mxCell id="lB71pB90fBSXB2FcQGe6-20" style="edgeStyle=orthogonalEdgeStyle;curved=1;orthogonalLoop=1;jettySize=auto;html=1;exitX=1;exitY=0.5;exitDx=0;exitDy=0;entryX=0;entryY=1;entryDx=0;entryDy=0;fontFamily=Times New Roman;fontSize=16;fontColor=default;" parent="1" source="lB71pB90fBSXB2FcQGe6-17" target="lB71pB90fBSXB2FcQGe6-1" edge="1">
          <mxGeometry relative="1" as="geometry">
            <Array as="points">
              <mxPoint x="1120" y="1025" />
              <mxPoint x="1120" y="1110" />
              <mxPoint x="262" y="1110" />
            </Array>
          </mxGeometry>
        </mxCell>
        <mxCell id="lB71pB90fBSXB2FcQGe6-17" value="REFILL3" style="ellipse;whiteSpace=wrap;html=1;aspect=fixed;fontFamily=Times New Roman;fontSize=16;strokeWidth=3;" parent="1" vertex="1">
          <mxGeometry x="1030" y="990" width="70" height="70" as="geometry" />
        </mxCell>
      </root>
    </mxGraphModel>
  </diagram>
  <diagram id="lfKdyZxKHXd9Xa7JOiTC" name="Page-4">
    <mxGraphModel dx="2063" dy="1051" grid="1" gridSize="10" guides="1" tooltips="1" connect="1" arrows="1" fold="1" page="1" pageScale="1" pageWidth="1920" pageHeight="1200" math="0" shadow="0">
      <root>
        <mxCell id="0" />
        <mxCell id="1" parent="0" />
        <mxCell id="U-eWqGjpXjlQePbseIPu-41" style="edgeStyle=orthogonalEdgeStyle;rounded=0;orthogonalLoop=1;jettySize=auto;html=1;exitX=0.5;exitY=1;exitDx=0;exitDy=0;entryX=0.25;entryY=0;entryDx=0;entryDy=0;fontFamily=Times New Roman;strokeWidth=3;" parent="1" source="1OwONnVKKZSZMXcpzl7E-1" target="U-eWqGjpXjlQePbseIPu-37" edge="1">
          <mxGeometry relative="1" as="geometry" />
        </mxCell>
        <mxCell id="1OwONnVKKZSZMXcpzl7E-1" value="RAT" style="rounded=1;whiteSpace=wrap;html=1;strokeWidth=3;fillColor=#A9C4EB;fontSize=14;fontFamily=Times New Roman;" parent="1" vertex="1">
          <mxGeometry x="1100" y="40" width="850" height="90" as="geometry" />
        </mxCell>
        <mxCell id="U-eWqGjpXjlQePbseIPu-31" style="edgeStyle=orthogonalEdgeStyle;rounded=0;orthogonalLoop=1;jettySize=auto;html=1;exitX=0;exitY=0.25;exitDx=0;exitDy=0;entryX=0;entryY=0.896;entryDx=0;entryDy=0;entryPerimeter=0;fontFamily=Times New Roman;strokeWidth=3;" parent="1" source="1OwONnVKKZSZMXcpzl7E-2" target="1OwONnVKKZSZMXcpzl7E-1" edge="1">
          <mxGeometry relative="1" as="geometry">
            <Array as="points">
              <mxPoint x="1060" y="213" />
              <mxPoint x="1060" y="121" />
            </Array>
          </mxGeometry>
        </mxCell>
        <mxCell id="1OwONnVKKZSZMXcpzl7E-2" value="Reorder Buffer" style="rounded=1;whiteSpace=wrap;html=1;strokeWidth=3;fillColor=#A9C4EB;fontSize=14;fontFamily=Times New Roman;" parent="1" vertex="1">
          <mxGeometry x="1100" y="190" width="850" height="110" as="geometry" />
        </mxCell>
        <mxCell id="1zHuuwpoFGJNDLJs7mXo-1" value="Decode" style="rounded=1;whiteSpace=wrap;html=1;strokeWidth=3;fillColor=#f8cecc;strokeColor=#b85450;fontSize=14;fontFamily=Times New Roman;" parent="1" vertex="1">
          <mxGeometry x="630" y="570" width="200" height="110" as="geometry" />
        </mxCell>
        <mxCell id="U-eWqGjpXjlQePbseIPu-42" style="edgeStyle=orthogonalEdgeStyle;rounded=0;orthogonalLoop=1;jettySize=auto;html=1;exitX=1;exitY=0.25;exitDx=0;exitDy=0;entryX=0.273;entryY=1.032;entryDx=0;entryDy=0;entryPerimeter=0;fontFamily=Times New Roman;strokeWidth=3;" parent="1" source="-av-Kp6yaDkl1szFVXHn-1" target="1OwONnVKKZSZMXcpzl7E-1" edge="1">
          <mxGeometry relative="1" as="geometry" />
        </mxCell>
        <mxCell id="-av-Kp6yaDkl1szFVXHn-1" value="" style="rounded=1;whiteSpace=wrap;html=1;fillColor=#fff2cc;strokeColor=#d6b656;strokeWidth=3;fontSize=14;fontFamily=Times New Roman;" parent="1" vertex="1">
          <mxGeometry x="1260" y="350" width="40" height="570" as="geometry" />
        </mxCell>
        <mxCell id="U-eWqGjpXjlQePbseIPu-28" style="edgeStyle=orthogonalEdgeStyle;rounded=0;orthogonalLoop=1;jettySize=auto;html=1;exitX=1;exitY=0.25;exitDx=0;exitDy=0;entryX=0;entryY=0.331;entryDx=0;entryDy=0;entryPerimeter=0;fontFamily=Times New Roman;strokeWidth=3;" parent="1" source="-av-Kp6yaDkl1szFVXHn-2" target="1zHuuwpoFGJNDLJs7mXo-1" edge="1">
          <mxGeometry relative="1" as="geometry" />
        </mxCell>
        <mxCell id="-av-Kp6yaDkl1szFVXHn-2" value="" style="rounded=1;whiteSpace=wrap;html=1;fillColor=#fff2cc;strokeColor=#d6b656;strokeWidth=3;fontSize=14;fontFamily=Times New Roman;" parent="1" vertex="1">
          <mxGeometry x="530" y="350" width="40" height="570" as="geometry" />
        </mxCell>
        <mxCell id="U-eWqGjpXjlQePbseIPu-1" value="" style="endArrow=none;html=1;rounded=0;strokeWidth=3;fontSize=14;fontFamily=Times New Roman;" parent="1" edge="1">
          <mxGeometry width="50" height="50" relative="1" as="geometry">
            <mxPoint x="289.16" y="597" as="sourcePoint" />
            <mxPoint x="349.16" y="627" as="targetPoint" />
          </mxGeometry>
        </mxCell>
        <mxCell id="U-eWqGjpXjlQePbseIPu-2" value="" style="endArrow=none;html=1;rounded=0;strokeWidth=3;fontSize=14;fontFamily=Times New Roman;" parent="1" edge="1">
          <mxGeometry width="50" height="50" relative="1" as="geometry">
            <mxPoint x="349.16" y="627" as="sourcePoint" />
            <mxPoint x="349.16" y="667" as="targetPoint" />
          </mxGeometry>
        </mxCell>
        <mxCell id="U-eWqGjpXjlQePbseIPu-3" value="" style="endArrow=none;html=1;rounded=0;strokeWidth=3;fontSize=14;fontFamily=Times New Roman;" parent="1" edge="1">
          <mxGeometry width="50" height="50" relative="1" as="geometry">
            <mxPoint x="349.16" y="667" as="sourcePoint" />
            <mxPoint x="289.16" y="697" as="targetPoint" />
          </mxGeometry>
        </mxCell>
        <mxCell id="U-eWqGjpXjlQePbseIPu-4" value="" style="endArrow=none;html=1;rounded=0;strokeWidth=3;fontSize=14;fontFamily=Times New Roman;" parent="1" edge="1">
          <mxGeometry width="50" height="50" relative="1" as="geometry">
            <mxPoint x="289.16" y="597" as="sourcePoint" />
            <mxPoint x="289.16" y="697" as="targetPoint" />
            <Array as="points">
              <mxPoint x="289.16" y="637" />
              <mxPoint x="299.16" y="647" />
              <mxPoint x="289.16" y="657" />
            </Array>
          </mxGeometry>
        </mxCell>
        <mxCell id="U-eWqGjpXjlQePbseIPu-5" style="edgeStyle=orthogonalEdgeStyle;rounded=0;orthogonalLoop=1;jettySize=auto;html=1;exitX=1;exitY=0.75;exitDx=0;exitDy=0;strokeWidth=3;fontSize=14;fontFamily=Times New Roman;" parent="1" source="U-eWqGjpXjlQePbseIPu-7" edge="1">
          <mxGeometry relative="1" as="geometry">
            <mxPoint x="529.1600000000001" y="832.5" as="targetPoint" />
          </mxGeometry>
        </mxCell>
        <mxCell id="U-eWqGjpXjlQePbseIPu-6" value="inst_IF[31:0]" style="edgeLabel;html=1;align=center;verticalAlign=middle;resizable=0;points=[];fontSize=14;fontFamily=Times New Roman;" parent="U-eWqGjpXjlQePbseIPu-5" vertex="1" connectable="0">
          <mxGeometry x="-0.1719" y="1" relative="1" as="geometry">
            <mxPoint x="1" as="offset" />
          </mxGeometry>
        </mxCell>
        <mxCell id="U-eWqGjpXjlQePbseIPu-7" value="Inst&lt;br&gt;Memory" style="rounded=1;whiteSpace=wrap;html=1;strokeWidth=3;fillColor=#CCE5FF;fontSize=14;fontFamily=Times New Roman;" parent="1" vertex="1">
          <mxGeometry x="49.160000000000025" y="682.5" width="160" height="200" as="geometry" />
        </mxCell>
        <mxCell id="U-eWqGjpXjlQePbseIPu-8" style="edgeStyle=orthogonalEdgeStyle;rounded=0;orthogonalLoop=1;jettySize=auto;html=1;exitX=1;exitY=0.5;exitDx=0;exitDy=0;entryX=0.021;entryY=0.15;entryDx=0;entryDy=0;entryPerimeter=0;fontFamily=Times New Roman;fontSize=14;fontColor=default;strokeWidth=3;" parent="1" source="U-eWqGjpXjlQePbseIPu-10" edge="1">
          <mxGeometry relative="1" as="geometry">
            <mxPoint x="530.0000000000002" y="498" as="targetPoint" />
          </mxGeometry>
        </mxCell>
        <mxCell id="U-eWqGjpXjlQePbseIPu-9" value="PC_IF[31:0]" style="edgeLabel;html=1;align=center;verticalAlign=middle;resizable=0;points=[];fontSize=14;fontFamily=Times New Roman;fontColor=default;" parent="U-eWqGjpXjlQePbseIPu-8" vertex="1" connectable="0">
          <mxGeometry x="-0.2445" relative="1" as="geometry">
            <mxPoint x="-1" as="offset" />
          </mxGeometry>
        </mxCell>
        <mxCell id="U-eWqGjpXjlQePbseIPu-10" value="&lt;font style=&quot;font-size: 14px;&quot;&gt;PC&lt;/font&gt;" style="rounded=1;whiteSpace=wrap;html=1;strokeWidth=3;fillColor=#e1d5e7;strokeColor=#9673a6;fontSize=14;fontFamily=Times New Roman;" parent="1" vertex="1">
          <mxGeometry x="349.16" y="452.5" width="40" height="90" as="geometry" />
        </mxCell>
        <mxCell id="U-eWqGjpXjlQePbseIPu-11" style="edgeStyle=orthogonalEdgeStyle;rounded=0;orthogonalLoop=1;jettySize=auto;html=1;entryX=0;entryY=0.25;entryDx=0;entryDy=0;fontFamily=Times New Roman;fontSize=14;fontColor=default;strokeWidth=3;" parent="1" target="U-eWqGjpXjlQePbseIPu-7" edge="1">
          <mxGeometry relative="1" as="geometry">
            <mxPoint x="499.16" y="498.5" as="sourcePoint" />
            <mxPoint x="49.160000000000025" y="739.5" as="targetPoint" />
            <Array as="points">
              <mxPoint x="499.16" y="422.5" />
              <mxPoint x="19.160000000000025" y="422.5" />
              <mxPoint x="19.160000000000025" y="732.5" />
            </Array>
          </mxGeometry>
        </mxCell>
        <mxCell id="U-eWqGjpXjlQePbseIPu-12" style="edgeStyle=orthogonalEdgeStyle;rounded=0;orthogonalLoop=1;jettySize=auto;html=1;fontFamily=Times New Roman;fontSize=14;fontColor=default;strokeWidth=3;startArrow=none;" parent="1" source="U-eWqGjpXjlQePbseIPu-23" edge="1">
          <mxGeometry relative="1" as="geometry">
            <mxPoint x="499.16" y="492.5" as="sourcePoint" />
            <mxPoint x="289.16" y="617" as="targetPoint" />
            <Array as="points">
              <mxPoint x="499.16" y="562.5" />
              <mxPoint x="249.16000000000003" y="562.5" />
              <mxPoint x="249.16000000000003" y="617.5" />
            </Array>
          </mxGeometry>
        </mxCell>
        <mxCell id="U-eWqGjpXjlQePbseIPu-13" value="" style="endArrow=classic;html=1;rounded=0;labelBackgroundColor=default;fontFamily=Times New Roman;fontSize=14;fontColor=default;strokeColor=default;strokeWidth=3;shape=connector;" parent="1" edge="1">
          <mxGeometry width="50" height="50" relative="1" as="geometry">
            <mxPoint x="249.16000000000003" y="677" as="sourcePoint" />
            <mxPoint x="289.16" y="677" as="targetPoint" />
          </mxGeometry>
        </mxCell>
        <mxCell id="U-eWqGjpXjlQePbseIPu-14" value="4" style="text;html=1;align=center;verticalAlign=middle;resizable=0;points=[];autosize=1;strokeColor=none;fillColor=none;fontSize=14;fontFamily=Times New Roman;fontColor=default;" parent="1" vertex="1">
          <mxGeometry x="229.16000000000003" y="667" width="20" height="20" as="geometry" />
        </mxCell>
        <mxCell id="U-eWqGjpXjlQePbseIPu-15" value="Add" style="text;html=1;align=center;verticalAlign=middle;resizable=0;points=[];autosize=1;strokeColor=none;fillColor=none;fontSize=14;fontFamily=Times New Roman;fontColor=default;" parent="1" vertex="1">
          <mxGeometry x="299.16" y="637" width="40" height="20" as="geometry" />
        </mxCell>
        <mxCell id="U-eWqGjpXjlQePbseIPu-16" value="" style="endArrow=none;html=1;rounded=0;labelBackgroundColor=default;fontFamily=Times New Roman;fontSize=14;fontColor=default;strokeColor=default;strokeWidth=3;shape=connector;" parent="1" edge="1">
          <mxGeometry width="50" height="50" relative="1" as="geometry">
            <mxPoint x="149.16000000000003" y="528" as="sourcePoint" />
            <mxPoint x="149.16000000000003" y="467" as="targetPoint" />
          </mxGeometry>
        </mxCell>
        <mxCell id="U-eWqGjpXjlQePbseIPu-17" value="" style="endArrow=none;html=1;rounded=0;labelBackgroundColor=default;fontFamily=Times New Roman;fontSize=14;fontColor=default;strokeColor=default;strokeWidth=3;shape=connector;" parent="1" edge="1">
          <mxGeometry width="50" height="50" relative="1" as="geometry">
            <mxPoint x="189.16000000000003" y="528" as="sourcePoint" />
            <mxPoint x="189.16000000000003" y="467" as="targetPoint" />
          </mxGeometry>
        </mxCell>
        <mxCell id="U-eWqGjpXjlQePbseIPu-18" value="" style="endArrow=none;html=1;labelBackgroundColor=default;fontFamily=Times New Roman;fontSize=14;fontColor=default;strokeColor=default;strokeWidth=3;shape=connector;curved=1;" parent="1" edge="1">
          <mxGeometry width="50" height="50" relative="1" as="geometry">
            <mxPoint x="149.16000000000003" y="467" as="sourcePoint" />
            <mxPoint x="189.16000000000003" y="467" as="targetPoint" />
            <Array as="points">
              <mxPoint x="149.16000000000003" y="447" />
              <mxPoint x="189.16000000000003" y="447" />
            </Array>
          </mxGeometry>
        </mxCell>
        <mxCell id="U-eWqGjpXjlQePbseIPu-19" value="" style="endArrow=none;html=1;labelBackgroundColor=default;fontFamily=Times New Roman;fontSize=14;fontColor=default;strokeColor=default;strokeWidth=3;shape=connector;curved=1;" parent="1" edge="1">
          <mxGeometry width="50" height="50" relative="1" as="geometry">
            <mxPoint x="189.16000000000003" y="528" as="sourcePoint" />
            <mxPoint x="149.16000000000003" y="528" as="targetPoint" />
            <Array as="points">
              <mxPoint x="189.16000000000003" y="548" />
              <mxPoint x="149.16000000000003" y="548" />
            </Array>
          </mxGeometry>
        </mxCell>
        <mxCell id="U-eWqGjpXjlQePbseIPu-20" value="" style="endArrow=classic;html=1;labelBackgroundColor=default;fontFamily=Times New Roman;fontSize=14;fontColor=default;strokeColor=default;strokeWidth=3;shape=connector;rounded=0;" parent="1" edge="1">
          <mxGeometry width="50" height="50" relative="1" as="geometry">
            <mxPoint x="349.16" y="657" as="sourcePoint" />
            <mxPoint x="149.16000000000003" y="472.5" as="targetPoint" />
            <Array as="points">
              <mxPoint x="389.16" y="657" />
              <mxPoint x="389.16" y="582.5" />
              <mxPoint x="59.160000000000025" y="582.5" />
              <mxPoint x="59.160000000000025" y="493" />
              <mxPoint x="59.160000000000025" y="472.5" />
            </Array>
          </mxGeometry>
        </mxCell>
        <mxCell id="U-eWqGjpXjlQePbseIPu-21" value="PC_P4" style="edgeLabel;html=1;align=center;verticalAlign=middle;resizable=0;points=[];fontSize=8;fontFamily=Times New Roman;fontColor=default;" parent="U-eWqGjpXjlQePbseIPu-20" vertex="1" connectable="0">
          <mxGeometry x="0.1911" y="9" relative="1" as="geometry">
            <mxPoint x="20" y="-9" as="offset" />
          </mxGeometry>
        </mxCell>
        <mxCell id="U-eWqGjpXjlQePbseIPu-22" value="" style="endArrow=classic;html=1;labelBackgroundColor=default;fontFamily=Times New Roman;fontSize=14;fontColor=default;strokeColor=default;strokeWidth=3;shape=connector;rounded=0;" parent="1" target="U-eWqGjpXjlQePbseIPu-10" edge="1">
          <mxGeometry width="50" height="50" relative="1" as="geometry">
            <mxPoint x="189.16000000000003" y="497.5" as="sourcePoint" />
            <mxPoint x="159.16000000000003" y="532.5" as="targetPoint" />
          </mxGeometry>
        </mxCell>
        <mxCell id="U-eWqGjpXjlQePbseIPu-23" value="" style="shape=image;html=1;verticalAlign=top;verticalLabelPosition=bottom;labelBackgroundColor=#ffffff;imageAspect=0;aspect=fixed;image=https://cdn4.iconfinder.com/data/icons/essential-app-2/16/record-round-circle-dot-128.png;fontFamily=Times New Roman;fontSize=14;fontColor=default;" parent="1" vertex="1">
          <mxGeometry x="495.16" y="494" width="9" height="9" as="geometry" />
        </mxCell>
        <mxCell id="U-eWqGjpXjlQePbseIPu-24" value="JumpPC" style="edgeLabel;html=1;align=center;verticalAlign=middle;resizable=0;points=[];fontSize=8;fontFamily=Times New Roman;fontColor=default;" parent="1" vertex="1" connectable="0">
          <mxGeometry x="298.16" y="387.5" as="geometry" />
        </mxCell>
        <mxCell id="U-eWqGjpXjlQePbseIPu-25" value="" style="rounded=1;whiteSpace=wrap;html=1;fillColor=#fff2cc;strokeColor=#d6b656;strokeWidth=3;fontSize=14;fontFamily=Times New Roman;" parent="1" vertex="1">
          <mxGeometry x="920" y="350" width="40" height="570" as="geometry" />
        </mxCell>
        <mxCell id="U-eWqGjpXjlQePbseIPu-26" value="" style="rounded=1;whiteSpace=wrap;html=1;fillColor=#fff2cc;strokeColor=#d6b656;strokeWidth=3;fontSize=14;fontFamily=Times New Roman;" parent="1" vertex="1">
          <mxGeometry x="1860" y="350" width="40" height="570" as="geometry" />
        </mxCell>
        <mxCell id="U-eWqGjpXjlQePbseIPu-27" value="" style="rounded=1;whiteSpace=wrap;html=1;fillColor=#fff2cc;strokeColor=#d6b656;strokeWidth=3;fontSize=14;fontFamily=Times New Roman;" parent="1" vertex="1">
          <mxGeometry x="2160" y="350" width="40" height="570" as="geometry" />
        </mxCell>
        <mxCell id="U-eWqGjpXjlQePbseIPu-29" style="edgeStyle=orthogonalEdgeStyle;rounded=0;orthogonalLoop=1;jettySize=auto;html=1;exitX=1.008;exitY=0.845;exitDx=0;exitDy=0;fontFamily=Times New Roman;exitPerimeter=0;strokeWidth=3;" parent="1" edge="1">
          <mxGeometry relative="1" as="geometry">
            <mxPoint x="570.3200000000002" y="833.6500000000001" as="sourcePoint" />
            <mxPoint x="630" y="634" as="targetPoint" />
            <Array as="points">
              <mxPoint x="600" y="834" />
              <mxPoint x="600" y="634" />
            </Array>
          </mxGeometry>
        </mxCell>
        <mxCell id="U-eWqGjpXjlQePbseIPu-30" style="edgeStyle=orthogonalEdgeStyle;rounded=0;orthogonalLoop=1;jettySize=auto;html=1;entryX=0;entryY=0.25;entryDx=0;entryDy=0;fontFamily=Times New Roman;strokeWidth=3;" parent="1" source="U-eWqGjpXjlQePbseIPu-25" target="1OwONnVKKZSZMXcpzl7E-1" edge="1">
          <mxGeometry relative="1" as="geometry">
            <mxPoint x="960" y="510" as="sourcePoint" />
            <mxPoint x="1020" y="623.9100000000001" as="targetPoint" />
            <Array as="points">
              <mxPoint x="980" y="410" />
              <mxPoint x="980" y="63" />
            </Array>
          </mxGeometry>
        </mxCell>
        <mxCell id="U-eWqGjpXjlQePbseIPu-32" style="edgeStyle=orthogonalEdgeStyle;rounded=0;orthogonalLoop=1;jettySize=auto;html=1;exitX=1.081;exitY=0.145;exitDx=0;exitDy=0;entryX=0;entryY=0.5;entryDx=0;entryDy=0;fontFamily=Times New Roman;strokeWidth=3;exitPerimeter=0;" parent="1" source="U-eWqGjpXjlQePbseIPu-25" target="1OwONnVKKZSZMXcpzl7E-1" edge="1">
          <mxGeometry relative="1" as="geometry">
            <mxPoint x="970" y="520" as="sourcePoint" />
            <mxPoint x="1110" y="72.5" as="targetPoint" />
          </mxGeometry>
        </mxCell>
        <mxCell id="U-eWqGjpXjlQePbseIPu-33" value="" style="endArrow=classic;html=1;rounded=0;fontFamily=Times New Roman;strokeWidth=3;entryX=0;entryY=0.386;entryDx=0;entryDy=0;entryPerimeter=0;" parent="1" edge="1">
          <mxGeometry width="50" height="50" relative="1" as="geometry">
            <mxPoint x="1030" y="232" as="sourcePoint" />
            <mxPoint x="1100" y="232.46000000000004" as="targetPoint" />
          </mxGeometry>
        </mxCell>
        <mxCell id="U-eWqGjpXjlQePbseIPu-34" value="" style="endArrow=classic;html=1;rounded=0;fontFamily=Times New Roman;strokeWidth=3;entryX=0;entryY=0.5;entryDx=0;entryDy=0;" parent="1" edge="1">
          <mxGeometry width="50" height="50" relative="1" as="geometry">
            <mxPoint x="980" y="250" as="sourcePoint" />
            <mxPoint x="1100" y="250" as="targetPoint" />
          </mxGeometry>
        </mxCell>
        <mxCell id="U-eWqGjpXjlQePbseIPu-35" value="" style="endArrow=classic;html=1;rounded=0;fontFamily=Times New Roman;strokeWidth=3;exitX=1.058;exitY=0.209;exitDx=0;exitDy=0;exitPerimeter=0;entryX=0;entryY=0.75;entryDx=0;entryDy=0;" parent="1" source="U-eWqGjpXjlQePbseIPu-25" target="1OwONnVKKZSZMXcpzl7E-2" edge="1">
          <mxGeometry width="50" height="50" relative="1" as="geometry">
            <mxPoint x="1190" y="480" as="sourcePoint" />
            <mxPoint x="1060" y="280" as="targetPoint" />
            <Array as="points">
              <mxPoint x="1050" y="470" />
              <mxPoint x="1050" y="273" />
            </Array>
          </mxGeometry>
        </mxCell>
        <mxCell id="U-eWqGjpXjlQePbseIPu-36" value="" style="endArrow=classic;html=1;rounded=0;fontFamily=Times New Roman;strokeWidth=3;exitX=1.058;exitY=0.209;exitDx=0;exitDy=0;exitPerimeter=0;entryX=0;entryY=0.887;entryDx=0;entryDy=0;entryPerimeter=0;" parent="1" target="1OwONnVKKZSZMXcpzl7E-2" edge="1">
          <mxGeometry width="50" height="50" relative="1" as="geometry">
            <mxPoint x="962.3200000000002" y="502.1300000000001" as="sourcePoint" />
            <mxPoint x="1100" y="305.5" as="targetPoint" />
            <Array as="points">
              <mxPoint x="1070" y="503" />
              <mxPoint x="1070" y="288" />
            </Array>
          </mxGeometry>
        </mxCell>
        <mxCell id="U-eWqGjpXjlQePbseIPu-37" value="RS" style="rounded=1;whiteSpace=wrap;html=1;strokeWidth=3;fillColor=#A9C4EB;fontSize=14;fontFamily=Times New Roman;" parent="1" vertex="1">
          <mxGeometry x="1540" y="530" width="170" height="190" as="geometry" />
        </mxCell>
        <mxCell id="U-eWqGjpXjlQePbseIPu-38" value="RS" style="rounded=1;whiteSpace=wrap;html=1;strokeWidth=3;fillColor=#A9C4EB;fontSize=14;fontFamily=Times New Roman;" parent="1" vertex="1">
          <mxGeometry x="1360" y="561.75" width="50" height="78.25" as="geometry" />
        </mxCell>
        <mxCell id="U-eWqGjpXjlQePbseIPu-39" value="" style="endArrow=classic;html=1;rounded=0;fontFamily=Times New Roman;strokeWidth=3;" parent="1" target="U-eWqGjpXjlQePbseIPu-38" edge="1">
          <mxGeometry width="50" height="50" relative="1" as="geometry">
            <mxPoint x="1300" y="601" as="sourcePoint" />
            <mxPoint x="1240" y="540" as="targetPoint" />
          </mxGeometry>
        </mxCell>
        <mxCell id="U-eWqGjpXjlQePbseIPu-40" value="" style="endArrow=classic;html=1;rounded=0;fontFamily=Times New Roman;strokeWidth=3;entryX=-0.005;entryY=0.151;entryDx=0;entryDy=0;entryPerimeter=0;" parent="1" target="U-eWqGjpXjlQePbseIPu-37" edge="1">
          <mxGeometry width="50" height="50" relative="1" as="geometry">
            <mxPoint x="1410" y="580.09" as="sourcePoint" />
            <mxPoint x="1470" y="580.0017647058825" as="targetPoint" />
            <Array as="points">
              <mxPoint x="1470" y="580" />
              <mxPoint x="1470" y="559" />
            </Array>
          </mxGeometry>
        </mxCell>
        <mxCell id="U-eWqGjpXjlQePbseIPu-44" style="edgeStyle=orthogonalEdgeStyle;rounded=0;orthogonalLoop=1;jettySize=auto;html=1;exitX=1.003;exitY=0.318;exitDx=0;exitDy=0;entryX=0.319;entryY=1.012;entryDx=0;entryDy=0;entryPerimeter=0;fontFamily=Times New Roman;strokeWidth=3;exitPerimeter=0;" parent="1" source="-av-Kp6yaDkl1szFVXHn-1" target="1OwONnVKKZSZMXcpzl7E-1" edge="1">
          <mxGeometry relative="1" as="geometry">
            <mxPoint x="1310" y="502.5" as="sourcePoint" />
            <mxPoint x="1342.0500000000002" y="142.8800000000001" as="targetPoint" />
          </mxGeometry>
        </mxCell>
        <mxCell id="U-eWqGjpXjlQePbseIPu-45" value="" style="rounded=1;whiteSpace=wrap;html=1;strokeWidth=3;fillColor=#A9C4EB;fontSize=14;fontFamily=Times New Roman;" parent="1" vertex="1">
          <mxGeometry x="1320" y="1300" width="590" height="330" as="geometry" />
        </mxCell>
        <mxCell id="U-eWqGjpXjlQePbseIPu-46" value="RS" style="rounded=1;whiteSpace=wrap;html=1;strokeWidth=3;fillColor=#A9C4EB;fontSize=14;fontFamily=Times New Roman;" parent="1" vertex="1">
          <mxGeometry x="1390" y="1360" width="160" height="190" as="geometry" />
        </mxCell>
        <mxCell id="U-eWqGjpXjlQePbseIPu-47" value="Memory" style="rounded=1;whiteSpace=wrap;html=1;strokeWidth=3;fillColor=#CCE5FF;fontSize=14;fontFamily=Times New Roman;" parent="1" vertex="1">
          <mxGeometry x="2100" y="1320" width="160" height="320" as="geometry" />
        </mxCell>
      </root>
    </mxGraphModel>
  </diagram>
  <diagram id="Q0VDx93qg_7vbBkCGzSD" name="Page-5">
    <mxGraphModel dx="1550" dy="835" grid="1" gridSize="10" guides="1" tooltips="1" connect="1" arrows="1" fold="1" page="1" pageScale="1" pageWidth="1920" pageHeight="1200" math="0" shadow="0">
      <root>
        <mxCell id="0" />
        <mxCell id="1" parent="0" />
        <mxCell id="WfaNpjdn7PejWgiskOvd-4" style="edgeStyle=orthogonalEdgeStyle;rounded=0;orthogonalLoop=1;jettySize=auto;html=1;exitX=1;exitY=0.5;exitDx=0;exitDy=0;fontFamily=Times New Roman;fontSize=13;strokeWidth=2;" parent="1" source="WfaNpjdn7PejWgiskOvd-1" target="WfaNpjdn7PejWgiskOvd-2" edge="1">
          <mxGeometry relative="1" as="geometry" />
        </mxCell>
        <mxCell id="WfaNpjdn7PejWgiskOvd-1" value="&lt;font style=&quot;font-size: 13px;&quot;&gt;STATE_IDLE&lt;/font&gt;" style="ellipse;whiteSpace=wrap;html=1;aspect=fixed;strokeWidth=2;fontFamily=Times New Roman;fontSize=13;" parent="1" vertex="1">
          <mxGeometry x="230" y="240" width="100" height="100" as="geometry" />
        </mxCell>
        <mxCell id="WfaNpjdn7PejWgiskOvd-5" style="edgeStyle=orthogonalEdgeStyle;rounded=0;orthogonalLoop=1;jettySize=auto;html=1;exitX=0.5;exitY=1;exitDx=0;exitDy=0;entryX=1;entryY=0.5;entryDx=0;entryDy=0;fontFamily=Times New Roman;fontSize=13;strokeWidth=2;" parent="1" source="WfaNpjdn7PejWgiskOvd-2" target="WfaNpjdn7PejWgiskOvd-3" edge="1">
          <mxGeometry relative="1" as="geometry" />
        </mxCell>
        <mxCell id="WfaNpjdn7PejWgiskOvd-2" value="&lt;font style=&quot;font-size: 13px;&quot;&gt;STATE_MEPC&lt;/font&gt;" style="ellipse;whiteSpace=wrap;html=1;aspect=fixed;strokeWidth=2;fontFamily=Times New Roman;fontSize=13;" parent="1" vertex="1">
          <mxGeometry x="520" y="240" width="100" height="100" as="geometry" />
        </mxCell>
        <mxCell id="WfaNpjdn7PejWgiskOvd-6" style="edgeStyle=orthogonalEdgeStyle;rounded=0;orthogonalLoop=1;jettySize=auto;html=1;exitX=0;exitY=0.5;exitDx=0;exitDy=0;entryX=0.5;entryY=1;entryDx=0;entryDy=0;fontFamily=Times New Roman;fontSize=13;strokeWidth=2;" parent="1" source="WfaNpjdn7PejWgiskOvd-3" target="WfaNpjdn7PejWgiskOvd-1" edge="1">
          <mxGeometry relative="1" as="geometry" />
        </mxCell>
        <mxCell id="WfaNpjdn7PejWgiskOvd-3" value="&lt;font style=&quot;font-size: 13px;&quot;&gt;STATE_&lt;br&gt;MCAUSE&lt;/font&gt;" style="ellipse;whiteSpace=wrap;html=1;aspect=fixed;strokeWidth=2;fontFamily=Times New Roman;fontSize=13;" parent="1" vertex="1">
          <mxGeometry x="380" y="370" width="100" height="100" as="geometry" />
        </mxCell>
        <mxCell id="WfaNpjdn7PejWgiskOvd-7" value="`" style="text;html=1;align=center;verticalAlign=middle;resizable=0;points=[];autosize=1;strokeColor=none;fillColor=none;fontFamily=Times New Roman;fontSize=13;" parent="1" vertex="1">
          <mxGeometry x="870" y="190" width="20" height="20" as="geometry" />
        </mxCell>
        <mxCell id="WfaNpjdn7PejWgiskOvd-8" value="" style="curved=1;endArrow=classic;html=1;rounded=0;fontFamily=Times New Roman;exitX=0.5;exitY=0;exitDx=0;exitDy=0;entryX=1;entryY=0;entryDx=0;entryDy=0;fontSize=13;strokeWidth=2;" parent="1" source="WfaNpjdn7PejWgiskOvd-1" target="WfaNpjdn7PejWgiskOvd-1" edge="1">
          <mxGeometry width="50" height="50" relative="1" as="geometry">
            <mxPoint x="290" y="220" as="sourcePoint" />
            <mxPoint x="340" y="170" as="targetPoint" />
            <Array as="points">
              <mxPoint x="280" y="220" />
              <mxPoint x="310" y="210" />
              <mxPoint x="330" y="230" />
            </Array>
          </mxGeometry>
        </mxCell>
        <mxCell id="WfaNpjdn7PejWgiskOvd-9" value="" style="curved=1;endArrow=classic;html=1;rounded=0;fontFamily=Times New Roman;exitX=0.003;exitY=0.673;exitDx=0;exitDy=0;fontSize=13;entryX=0.27;entryY=0.96;entryDx=0;entryDy=0;entryPerimeter=0;exitPerimeter=0;strokeWidth=2;" parent="1" source="WfaNpjdn7PejWgiskOvd-1" target="WfaNpjdn7PejWgiskOvd-1" edge="1">
          <mxGeometry width="50" height="50" relative="1" as="geometry">
            <mxPoint x="254.64466094067257" y="264.64466094067257" as="sourcePoint" />
            <mxPoint x="325.35533905932743" y="264.64466094067257" as="targetPoint" />
            <Array as="points">
              <mxPoint x="210" y="330" />
              <mxPoint x="220" y="350" />
              <mxPoint x="240" y="350" />
            </Array>
          </mxGeometry>
        </mxCell>
        <mxCell id="WfaNpjdn7PejWgiskOvd-10" value="" style="curved=1;endArrow=classic;html=1;rounded=0;fontFamily=Times New Roman;entryX=0;entryY=0;entryDx=0;entryDy=0;fontSize=13;exitX=0;exitY=0.5;exitDx=0;exitDy=0;strokeWidth=2;" parent="1" source="WfaNpjdn7PejWgiskOvd-1" target="WfaNpjdn7PejWgiskOvd-1" edge="1">
          <mxGeometry width="50" height="50" relative="1" as="geometry">
            <mxPoint x="230" y="290" as="sourcePoint" />
            <mxPoint x="325.35533905932743" y="264.64466094067257" as="targetPoint" />
            <Array as="points">
              <mxPoint x="210" y="290" />
              <mxPoint x="200" y="260" />
              <mxPoint x="220" y="250" />
            </Array>
          </mxGeometry>
        </mxCell>
        <mxCell id="WfaNpjdn7PejWgiskOvd-11" value="1" style="text;html=1;align=center;verticalAlign=middle;resizable=0;points=[];autosize=1;strokeColor=none;fillColor=none;fontFamily=Times New Roman;fontSize=19;" parent="1" vertex="1">
          <mxGeometry x="415" y="265" width="30" height="30" as="geometry" />
        </mxCell>
        <mxCell id="WfaNpjdn7PejWgiskOvd-12" value="2" style="text;html=1;align=center;verticalAlign=middle;resizable=0;points=[];autosize=1;strokeColor=none;fillColor=none;fontFamily=Times New Roman;fontSize=19;" parent="1" vertex="1">
          <mxGeometry x="545" y="365" width="30" height="30" as="geometry" />
        </mxCell>
        <mxCell id="WfaNpjdn7PejWgiskOvd-13" value="3" style="text;html=1;align=center;verticalAlign=middle;resizable=0;points=[];autosize=1;strokeColor=none;fillColor=none;fontFamily=Times New Roman;fontSize=19;" parent="1" vertex="1">
          <mxGeometry x="275" y="365" width="30" height="30" as="geometry" />
        </mxCell>
        <mxCell id="WfaNpjdn7PejWgiskOvd-14" value="4" style="text;html=1;align=center;verticalAlign=middle;resizable=0;points=[];autosize=1;strokeColor=none;fillColor=none;fontFamily=Times New Roman;fontSize=19;" parent="1" vertex="1">
          <mxGeometry x="195" y="335" width="30" height="30" as="geometry" />
        </mxCell>
        <mxCell id="WfaNpjdn7PejWgiskOvd-15" value="5" style="text;html=1;align=center;verticalAlign=middle;resizable=0;points=[];autosize=1;strokeColor=none;fillColor=none;fontFamily=Times New Roman;fontSize=19;" parent="1" vertex="1">
          <mxGeometry x="175" y="245" width="30" height="30" as="geometry" />
        </mxCell>
        <mxCell id="WfaNpjdn7PejWgiskOvd-16" value="6" style="text;html=1;align=center;verticalAlign=middle;resizable=0;points=[];autosize=1;strokeColor=none;fillColor=none;fontFamily=Times New Roman;fontSize=19;" parent="1" vertex="1">
          <mxGeometry x="295" y="185" width="30" height="30" as="geometry" />
        </mxCell>
      </root>
    </mxGraphModel>
  </diagram>
  <diagram id="bqkjcErEQGLgS2GZA0g4" name="Page-6">
    <mxGraphModel dx="2276" dy="817" grid="1" gridSize="10" guides="1" tooltips="1" connect="1" arrows="1" fold="1" page="1" pageScale="1" pageWidth="850" pageHeight="1100" math="0" shadow="0">
      <root>
        <mxCell id="0" />
        <mxCell id="1" parent="0" />
        <mxCell id="HZJw5x7Xp-MAtBqZzj_i-4" value="" style="rounded=1;whiteSpace=wrap;html=1;fontFamily=Times New Roman;strokeWidth=2;fontSize=16;" vertex="1" parent="1">
          <mxGeometry x="180" y="250" width="200" height="150" as="geometry" />
        </mxCell>
        <mxCell id="HZJw5x7Xp-MAtBqZzj_i-1" value="L1" style="rounded=1;whiteSpace=wrap;html=1;fontFamily=Times New Roman;strokeWidth=2;fontSize=16;" vertex="1" parent="1">
          <mxGeometry x="240" y="280" width="80" height="40" as="geometry" />
        </mxCell>
        <mxCell id="HZJw5x7Xp-MAtBqZzj_i-3" value="L2" style="rounded=1;whiteSpace=wrap;html=1;fontFamily=Times New Roman;strokeWidth=2;fontSize=16;" vertex="1" parent="1">
          <mxGeometry x="220" y="340" width="120" height="40" as="geometry" />
        </mxCell>
        <mxCell id="HZJw5x7Xp-MAtBqZzj_i-5" value="" style="rounded=1;whiteSpace=wrap;html=1;fontFamily=Times New Roman;strokeWidth=2;fontSize=16;" vertex="1" parent="1">
          <mxGeometry x="610" y="250" width="200" height="150" as="geometry" />
        </mxCell>
        <mxCell id="HZJw5x7Xp-MAtBqZzj_i-6" value="L1" style="rounded=1;whiteSpace=wrap;html=1;fontFamily=Times New Roman;strokeWidth=2;fontSize=16;" vertex="1" parent="1">
          <mxGeometry x="670" y="280" width="80" height="40" as="geometry" />
        </mxCell>
        <mxCell id="HZJw5x7Xp-MAtBqZzj_i-7" value="L2" style="rounded=1;whiteSpace=wrap;html=1;fontFamily=Times New Roman;strokeWidth=2;fontSize=16;" vertex="1" parent="1">
          <mxGeometry x="650" y="340" width="120" height="40" as="geometry" />
        </mxCell>
        <mxCell id="HZJw5x7Xp-MAtBqZzj_i-8" value="..." style="rounded=1;whiteSpace=wrap;html=1;fontFamily=Times New Roman;strokeWidth=2;fontSize=16;" vertex="1" parent="1">
          <mxGeometry x="460" y="250" width="60" height="150" as="geometry" />
        </mxCell>
        <mxCell id="HZJw5x7Xp-MAtBqZzj_i-9" value="LLC Slice s" style="rounded=1;whiteSpace=wrap;html=1;fontFamily=Times New Roman;strokeWidth=2;fontSize=16;" vertex="1" parent="1">
          <mxGeometry x="610" y="530" width="200" height="60" as="geometry" />
        </mxCell>
        <mxCell id="HZJw5x7Xp-MAtBqZzj_i-10" value="LLC Slice c" style="rounded=1;whiteSpace=wrap;html=1;fontFamily=Times New Roman;strokeWidth=2;fontSize=16;" vertex="1" parent="1">
          <mxGeometry x="180" y="530" width="200" height="60" as="geometry" />
        </mxCell>
        <mxCell id="HZJw5x7Xp-MAtBqZzj_i-11" value="..." style="rounded=1;whiteSpace=wrap;html=1;fontFamily=Times New Roman;strokeWidth=2;fontSize=16;" vertex="1" parent="1">
          <mxGeometry x="460" y="530" width="60" height="60" as="geometry" />
        </mxCell>
        <mxCell id="HZJw5x7Xp-MAtBqZzj_i-15" value="" style="edgeStyle=orthogonalEdgeStyle;rounded=0;orthogonalLoop=1;jettySize=auto;html=1;endArrow=none;endFill=0;fontFamily=Times New Roman;strokeWidth=2;fontSize=16;" edge="1" parent="1" source="HZJw5x7Xp-MAtBqZzj_i-12">
          <mxGeometry relative="1" as="geometry">
            <mxPoint x="280" y="400" as="targetPoint" />
          </mxGeometry>
        </mxCell>
        <mxCell id="HZJw5x7Xp-MAtBqZzj_i-16" style="edgeStyle=orthogonalEdgeStyle;rounded=0;orthogonalLoop=1;jettySize=auto;html=1;endArrow=none;endFill=0;fontFamily=Times New Roman;strokeWidth=2;fontSize=16;" edge="1" parent="1" source="HZJw5x7Xp-MAtBqZzj_i-12" target="HZJw5x7Xp-MAtBqZzj_i-10">
          <mxGeometry relative="1" as="geometry" />
        </mxCell>
        <mxCell id="HZJw5x7Xp-MAtBqZzj_i-12" value="" style="rounded=0;whiteSpace=wrap;html=1;fontFamily=Times New Roman;strokeWidth=2;fontSize=16;" vertex="1" parent="1">
          <mxGeometry x="270" y="440" width="20" height="50" as="geometry" />
        </mxCell>
        <mxCell id="HZJw5x7Xp-MAtBqZzj_i-19" style="edgeStyle=orthogonalEdgeStyle;rounded=0;orthogonalLoop=1;jettySize=auto;html=1;endArrow=none;endFill=0;fontFamily=Times New Roman;strokeWidth=2;fontSize=16;" edge="1" parent="1" source="HZJw5x7Xp-MAtBqZzj_i-13" target="HZJw5x7Xp-MAtBqZzj_i-5">
          <mxGeometry relative="1" as="geometry" />
        </mxCell>
        <mxCell id="HZJw5x7Xp-MAtBqZzj_i-20" style="edgeStyle=orthogonalEdgeStyle;rounded=0;orthogonalLoop=1;jettySize=auto;html=1;endArrow=none;endFill=0;fontFamily=Times New Roman;strokeWidth=2;fontSize=16;" edge="1" parent="1" source="HZJw5x7Xp-MAtBqZzj_i-13" target="HZJw5x7Xp-MAtBqZzj_i-9">
          <mxGeometry relative="1" as="geometry" />
        </mxCell>
        <mxCell id="HZJw5x7Xp-MAtBqZzj_i-13" value="" style="rounded=0;whiteSpace=wrap;html=1;fontFamily=Times New Roman;strokeWidth=2;fontSize=16;" vertex="1" parent="1">
          <mxGeometry x="700" y="440" width="20" height="50" as="geometry" />
        </mxCell>
        <mxCell id="HZJw5x7Xp-MAtBqZzj_i-17" style="edgeStyle=orthogonalEdgeStyle;rounded=0;orthogonalLoop=1;jettySize=auto;html=1;endArrow=none;endFill=0;fontFamily=Times New Roman;strokeWidth=2;fontSize=16;" edge="1" parent="1" source="HZJw5x7Xp-MAtBqZzj_i-14" target="HZJw5x7Xp-MAtBqZzj_i-8">
          <mxGeometry relative="1" as="geometry" />
        </mxCell>
        <mxCell id="HZJw5x7Xp-MAtBqZzj_i-18" style="edgeStyle=orthogonalEdgeStyle;rounded=0;orthogonalLoop=1;jettySize=auto;html=1;endArrow=none;endFill=0;fontFamily=Times New Roman;strokeWidth=2;fontSize=16;" edge="1" parent="1" source="HZJw5x7Xp-MAtBqZzj_i-14" target="HZJw5x7Xp-MAtBqZzj_i-11">
          <mxGeometry relative="1" as="geometry" />
        </mxCell>
        <mxCell id="HZJw5x7Xp-MAtBqZzj_i-14" value="" style="rounded=0;whiteSpace=wrap;html=1;fontFamily=Times New Roman;strokeWidth=2;fontSize=16;" vertex="1" parent="1">
          <mxGeometry x="480" y="440" width="20" height="50" as="geometry" />
        </mxCell>
        <mxCell id="HZJw5x7Xp-MAtBqZzj_i-21" value="core C" style="text;html=1;align=center;verticalAlign=middle;resizable=0;points=[];autosize=1;strokeColor=none;fillColor=none;fontFamily=Times New Roman;strokeWidth=2;fontSize=16;" vertex="1" parent="1">
          <mxGeometry x="245" y="210" width="70" height="30" as="geometry" />
        </mxCell>
        <mxCell id="HZJw5x7Xp-MAtBqZzj_i-22" value="" style="rounded=1;whiteSpace=wrap;html=1;fillColor=#dae8fc;strokeColor=#6c8ebf;fontFamily=Times New Roman;strokeWidth=2;fontSize=16;" vertex="1" parent="1">
          <mxGeometry x="620" y="540" width="30" height="40" as="geometry" />
        </mxCell>
        <mxCell id="HZJw5x7Xp-MAtBqZzj_i-23" value="cache set p &lt;br&gt;data block" style="text;html=1;align=center;verticalAlign=middle;resizable=0;points=[];autosize=1;strokeColor=none;fillColor=none;fontFamily=Times New Roman;strokeWidth=2;fontSize=16;" vertex="1" parent="1">
          <mxGeometry x="590" y="600" width="90" height="50" as="geometry" />
        </mxCell>
        <mxCell id="HZJw5x7Xp-MAtBqZzj_i-25" value="" style="endArrow=classic;html=1;rounded=0;fillColor=#fad9d5;strokeColor=#FF0000;strokeWidth=2;exitX=0.493;exitY=0.887;exitDx=0;exitDy=0;entryX=1;entryY=0.5;entryDx=0;entryDy=0;exitPerimeter=0;fontFamily=Times New Roman;fontSize=16;" edge="1" parent="1" source="HZJw5x7Xp-MAtBqZzj_i-21" target="HZJw5x7Xp-MAtBqZzj_i-22">
          <mxGeometry width="50" height="50" relative="1" as="geometry">
            <mxPoint x="400" y="550" as="sourcePoint" />
            <mxPoint x="450" y="500" as="targetPoint" />
            <Array as="points">
              <mxPoint x="280" y="460" />
              <mxPoint x="710" y="460" />
              <mxPoint x="710" y="560" />
            </Array>
          </mxGeometry>
        </mxCell>
        <mxCell id="HZJw5x7Xp-MAtBqZzj_i-27" value="rdtsc" style="text;html=1;align=center;verticalAlign=middle;resizable=0;points=[];autosize=1;strokeColor=none;fillColor=none;fontFamily=Times New Roman;strokeWidth=2;fontSize=16;" vertex="1" parent="1">
          <mxGeometry x="200" y="210" width="50" height="30" as="geometry" />
        </mxCell>
        <mxCell id="HZJw5x7Xp-MAtBqZzj_i-28" value="access set p data block&lt;br&gt;evict from L1 &amp;amp; L2&lt;br&gt;time the access of set p datablock" style="text;html=1;align=left;verticalAlign=middle;resizable=0;points=[];autosize=1;strokeColor=none;fillColor=none;fontFamily=Times New Roman;strokeWidth=2;fontSize=16;" vertex="1" parent="1">
          <mxGeometry x="-50" y="300" width="240" height="70" as="geometry" />
        </mxCell>
      </root>
    </mxGraphModel>
  </diagram>
</mxfile>
